<svg width="20" height="21" viewBox="0 0 20 21" fill="none" xmlns="http://www.w3.org/2000/svg">
<path d="M3.99775 1L1.07275 4.9V18.55C1.07275 19.0672 1.2782 19.5632 1.6439 19.9289C2.00959 20.2946 2.50558 20.5 3.02275 20.5H16.6728C17.1899 20.5 17.6859 20.2946 18.0516 19.9289C18.4173 19.5632 18.6228 19.0672 18.6228 18.55V4.9L15.6978 1H3.99775Z" stroke="#254C6F" stroke-linecap="round" stroke-linejoin="round"/>
<path d="M1.07275 4.8999H18.6228" stroke="#254C6F" stroke-linecap="round" stroke-linejoin="round"/>
<path d="M13.7478 8.7998C13.7478 9.83415 13.3369 10.8261 12.6055 11.5575C11.8741 12.2889 10.8821 12.6998 9.84775 12.6998C8.81341 12.6998 7.82143 12.2889 7.09004 11.5575C6.35865 10.8261 5.94775 9.83415 5.94775 8.7998" stroke="#254C6F" stroke-linecap="round" stroke-linejoin="round"/>
</svg>
