<svg width="30" height="30" viewBox="0 0 30 30" fill="none" xmlns="http://www.w3.org/2000/svg">
<circle cx="15" cy="15" r="13" fill="#1B3B58"/>
<rect width="30" height="30" rx="15" fill="#F0F0F0"/>
<path fill-rule="evenodd" clip-rule="evenodd" d="M30 15.0906C30 6.75709 23.2835 0 15 0C6.71652 0 0 6.75709 0 15.0906C0 22.6224 5.48438 28.8655 12.6562 29.9987V19.4541H8.84665V15.0906H12.6562V11.7653C12.6562 7.98388 14.8962 5.89342 18.3221 5.89342C19.9634 5.89342 21.6804 6.1885 21.6804 6.1885V9.90254H19.7879C17.9257 9.90254 17.3431 11.0653 17.3431 12.2604V15.0913H21.5029L20.8386 19.4548H17.3431V30C24.5156 28.8675 30 22.6245 30 15.0906Z" fill="#1B3B58"/>
</svg>
