<svg width="36" height="35" viewBox="0 0 36 35" fill="none" xmlns="http://www.w3.org/2000/svg">
<ellipse cx="17.9362" cy="17.703" rx="15.2135" ry="15.2616" fill="#1B3B58"/>
<path fill-rule="evenodd" clip-rule="evenodd" d="M32.9975 17.5918C32.9975 9.13574 26.1626 2.2793 17.7332 2.2793C9.30383 2.2793 2.46899 9.13574 2.46899 17.5918C2.46899 25.2344 8.04998 31.5692 15.3482 32.719V22.0194H11.4715V17.5918H15.3482V14.2176C15.3482 10.3806 17.6276 8.25938 21.1138 8.25938C22.7841 8.25938 24.5313 8.55879 24.5313 8.55879V12.3274H22.6055C20.7104 12.3274 20.1176 13.5073 20.1176 14.72V17.5925H24.3507L23.6747 22.0201H20.1176V32.7204C27.4165 31.5713 32.9975 25.2364 32.9975 17.5918Z" fill="white"/>
</svg>
