<svg width="22" height="20" viewBox="0 0 22 20" fill="none" xmlns="http://www.w3.org/2000/svg">
<path d="M19.5306 2.34133C19.0419 1.83683 18.4616 1.43663 17.823 1.16358C17.1844 0.890537 16.4999 0.75 15.8086 0.75C15.1174 0.75 14.4329 0.890537 13.7942 1.16358C13.1556 1.43663 12.5754 1.83683 12.0867 2.34133L11.0725 3.38785L10.0583 2.34133C9.07118 1.32276 7.73236 0.750528 6.33636 0.750528C4.94037 0.750528 3.60155 1.32276 2.61443 2.34133C1.62731 3.3599 1.07275 4.74139 1.07275 6.18187C1.07275 7.62235 1.62731 9.00383 2.61443 10.0224L3.62863 11.0689L11.0725 18.75L18.5164 11.0689L19.5306 10.0224C20.0195 9.51814 20.4073 8.91942 20.6719 8.26045C20.9366 7.60148 21.0728 6.89517 21.0728 6.18187C21.0728 5.46857 20.9366 4.76225 20.6719 4.10328C20.4073 3.44431 20.0195 2.84559 19.5306 2.34133V2.34133Z" stroke="#254C6F" stroke-linecap="round" stroke-linejoin="round"/>
</svg>
