<svg width="32" height="31" viewBox="0 0 32 31" fill="none" xmlns="http://www.w3.org/2000/svg">
<ellipse cx="16.0641" cy="15.2616" rx="15.2135" ry="15.2616" fill="white"/>
<path d="M20.1314 7.10075C21.2092 7.10398 22.242 7.53494 23.0042 8.29951C23.7663 9.06409 24.1959 10.1001 24.1992 11.1814V19.3418C24.1959 20.4231 23.7663 21.4592 23.0042 22.2237C22.242 22.9883 21.2092 23.4193 20.1314 23.4225H11.9967C10.9188 23.4193 9.88601 22.9883 9.12384 22.2237C8.36168 21.4592 7.93208 20.4231 7.92886 19.3418V11.1814C7.93208 10.1001 8.36168 9.06409 9.12384 8.29951C9.88601 7.53494 10.9188 7.10398 11.9967 7.10075H20.1314ZM20.1314 5.46875H11.9967C8.86453 5.46875 6.302 8.03938 6.302 11.1814V19.3418C6.302 22.4839 8.86453 25.0545 11.9967 25.0545H20.1314C23.2635 25.0545 25.826 22.4839 25.826 19.3418V11.1814C25.826 8.03938 23.2635 5.46875 20.1314 5.46875Z" fill="#1B3B58"/>
<path d="M21.3516 11.1806C21.1103 11.1806 20.8743 11.1088 20.6737 10.9743C20.473 10.8398 20.3166 10.6487 20.2242 10.425C20.1319 10.2013 20.1077 9.95517 20.1548 9.71772C20.2019 9.48027 20.3181 9.26215 20.4888 9.09096C20.6594 8.91976 20.8768 8.80318 21.1135 8.75594C21.3502 8.70871 21.5956 8.73295 21.8186 8.8256C22.0415 8.91825 22.2321 9.07515 22.3662 9.27645C22.5003 9.47776 22.5719 9.71443 22.5719 9.95653C22.5722 10.1174 22.5409 10.2767 22.4797 10.4254C22.4185 10.5741 22.3286 10.7091 22.2152 10.8229C22.1018 10.9366 21.9672 11.0268 21.819 11.0882C21.6708 11.1496 21.5119 11.181 21.3516 11.1806Z" fill="#1B3B58"/>
<path d="M16.0641 11.9972C16.7077 11.9972 17.3369 12.1887 17.872 12.5474C18.4072 12.9061 18.8243 13.4159 19.0706 14.0124C19.3169 14.6089 19.3813 15.2653 19.2557 15.8985C19.1302 16.5318 18.8202 17.1134 18.3651 17.57C17.91 18.0265 17.3302 18.3374 16.699 18.4634C16.0677 18.5893 15.4134 18.5247 14.8188 18.2776C14.2242 18.0305 13.716 17.6121 13.3584 17.0753C13.0008 16.5385 12.81 15.9073 12.81 15.2617C12.8109 14.3962 13.154 13.5664 13.7641 12.9544C14.3742 12.3424 15.2013 11.9982 16.0641 11.9972ZM16.0641 10.3652C15.0987 10.3652 14.155 10.6524 13.3524 11.1904C12.5497 11.7285 11.9241 12.4932 11.5547 13.3879C11.1852 14.2826 11.0886 15.2671 11.2769 16.2169C11.4652 17.1667 11.9301 18.0392 12.6127 18.724C13.2953 19.4088 14.1651 19.8751 15.1119 20.064C16.0587 20.253 17.0401 20.156 17.932 19.7854C18.8239 19.4148 19.5862 18.7872 20.1225 17.982C20.6588 17.1768 20.9451 16.2301 20.9451 15.2617C20.9451 13.9631 20.4309 12.7176 19.5155 11.7994C18.6001 10.8811 17.3586 10.3652 16.0641 10.3652Z" fill="#1B3B58"/>
</svg>
