<svg width="29" height="29" viewBox="0 0 29 29" fill="none" xmlns="http://www.w3.org/2000/svg">
<g clip-path="url(#clip0_1486_1084)">
<path d="M7.92571 7.50784V7.00784C7.64957 7.00784 7.42571 7.2317 7.42571 7.50784H7.92571ZM21.0863 7.50784H21.5863C21.5863 7.2317 21.3625 7.00784 21.0863 7.00784V7.50784ZM14.506 23.706L14.2035 24.1041C14.3823 24.2399 14.6297 24.2399 14.8085 24.1041L14.506 23.706ZM9.5057 19.9065L9.8082 19.5084L9.5057 19.9065ZM19.5064 19.9065L19.2039 19.5084L19.5064 19.9065ZM14.0626 11.6342V11.1342C13.7864 11.1342 13.5626 11.3581 13.5626 11.6342H14.0626ZM14.9496 11.6342H15.4496C15.4496 11.3581 15.2257 11.1342 14.9496 11.1342V11.6342ZM14.9496 17.5468V18.0468C15.2257 18.0468 15.4496 17.823 15.4496 17.5468H14.9496ZM14.0626 17.5468H13.5626C13.5626 17.823 13.7864 18.0468 14.0626 18.0468V17.5468ZM11.5496 15.034H11.0496C11.0496 15.3101 11.2734 15.534 11.5496 15.534V15.034ZM11.5496 14.147V13.647C11.2734 13.647 11.0496 13.8709 11.0496 14.147H11.5496ZM17.4622 14.147H17.9622C17.9622 13.8709 17.7384 13.647 17.4622 13.647V14.147ZM17.4622 15.034V15.534C17.7384 15.534 17.9622 15.3101 17.9622 15.034H17.4622ZM27.5697 14.5905C27.5697 21.8054 21.7209 27.6542 14.506 27.6542V28.6542C22.2732 28.6542 28.5697 22.3576 28.5697 14.5905H27.5697ZM14.506 27.6542C7.29118 27.6542 1.44238 21.8054 1.44238 14.5905H0.442383C0.442383 22.3576 6.73889 28.6542 14.506 28.6542V27.6542ZM1.44238 14.5905C1.44238 7.37565 7.29118 1.52685 14.506 1.52685V0.526855C6.73889 0.526855 0.442383 6.82336 0.442383 14.5905H1.44238ZM14.506 1.52685C21.7209 1.52685 27.5697 7.37565 27.5697 14.5905H28.5697C28.5697 6.82336 22.2732 0.526855 14.506 0.526855V1.52685ZM7.92571 8.00784H21.0863V7.00784H7.92571V8.00784ZM20.5863 7.50784V16.7216H21.5863V7.50784H20.5863ZM8.42571 16.7216V7.50784H7.42571V16.7216H8.42571ZM19.2039 19.5084L14.2035 23.3079L14.8085 24.1041L19.8089 20.3046L19.2039 19.5084ZM14.8085 23.3079L9.8082 19.5084L9.2032 20.3046L14.2035 24.1041L14.8085 23.3079ZM7.42571 16.7216C7.42571 18.1281 8.08332 19.4537 9.2032 20.3046L9.8082 19.5084C8.93719 18.8466 8.42571 17.8156 8.42571 16.7216H7.42571ZM20.5863 16.7216C20.5863 17.8156 20.0749 18.8466 19.2039 19.5084L19.8089 20.3046C20.9287 19.4537 21.5863 18.1281 21.5863 16.7216H20.5863ZM14.0626 12.1342H14.9496V11.1342H14.0626V12.1342ZM14.4496 11.6342V17.5468H15.4496V11.6342H14.4496ZM14.9496 17.0468H14.0626V18.0468H14.9496V17.0468ZM14.5626 17.5468V11.6342H13.5626V17.5468H14.5626ZM12.0496 15.034V14.147H11.0496V15.034H12.0496ZM11.5496 14.647H17.4622V13.647H11.5496V14.647ZM16.9622 14.147V15.034H17.9622V14.147H16.9622ZM17.4622 14.534H11.5496V15.534H17.4622V14.534Z" fill="#825454"/>
</g>
<defs>
<clipPath id="clip0_1486_1084">
<rect width="29" height="29" fill="white"/>
</clipPath>
</defs>
</svg>
