<svg width="30" height="30" viewBox="0 0 30 30" fill="none" xmlns="http://www.w3.org/2000/svg">
<g clip-path="url(#clip0_1791_1790)">
<path d="M4.82583 4.67978C2.2992 7.21725 0.737488 10.7163 0.737488 14.5801C0.737488 18.4438 2.2992 21.9429 4.82583 24.4804M24.7118 4.67978C27.2385 7.21725 28.8002 10.7163 28.8002 14.5801C28.8002 18.4438 27.2385 21.9429 24.7118 24.4804M14.7688 28.6115C17.7358 28.6115 20.4876 27.6906 22.7543 26.1191C24.3199 17.1572 24.4695 12.1031 22.7543 3.04109C20.4876 1.46958 17.7358 0.548706 14.7688 0.548706C11.8019 0.548706 9.05002 1.46958 6.78345 3.04109C4.97968 12.1283 5.03362 17.1775 6.78345 26.1191C9.05002 27.6906 11.8019 28.6115 14.7688 28.6115Z" stroke="#E28903" stroke-linecap="round" stroke-linejoin="round"/>
</g>
<defs>
<clipPath id="clip0_1791_1790">
<rect width="30" height="30" fill="white"/>
</clipPath>
</defs>
</svg>
