<svg width="30" height="30" viewBox="0 0 30 30" fill="none" xmlns="http://www.w3.org/2000/svg">
<g clip-path="url(#clip0_1791_1799)">
<path d="M28.5393 15.3995C28.5393 22.8632 22.4888 28.9137 15.0251 28.9137V29.9482C23.0602 29.9482 29.5738 23.4345 29.5738 15.3995H28.5393ZM15.0251 28.9137C7.56152 28.9137 1.51104 22.8632 1.51104 15.3995H0.476562C0.476562 23.4345 6.99019 29.9482 15.0251 29.9482V28.9137ZM1.51104 15.3995C1.51104 7.93592 7.56152 1.88543 15.0251 1.88543V0.850952C6.99019 0.850952 0.476562 7.36458 0.476562 15.3995H1.51104ZM15.0251 1.88543C22.4888 1.88543 28.5393 7.93592 28.5393 15.3995H29.5738C29.5738 7.36458 23.0602 0.850952 15.0251 0.850952V1.88543ZM22.4459 7.9788C22.4065 7.9393 22.4379 7.92555 22.4331 8.04693C22.4282 8.16732 22.3884 8.35327 22.2892 8.61256C22.0921 9.12761 21.706 9.81779 21.1437 10.642C20.0238 12.2834 18.2646 14.3699 16.1301 16.5044L16.8615 17.2359C19.0273 15.0701 20.8322 12.9341 21.9983 11.2251C22.5788 10.3741 23.0162 9.60711 23.2553 8.98222C23.3741 8.67156 23.4555 8.36686 23.4667 8.08833C23.4778 7.81079 23.42 7.48985 23.1774 7.2473L22.4459 7.9788ZM16.1301 16.5044C13.9955 18.639 11.9091 20.3982 10.2676 21.5181C9.44338 22.0805 8.7532 22.4665 8.23815 22.6635C7.97886 22.7627 7.79291 22.8026 7.67253 22.8074C7.55114 22.8123 7.5649 22.7808 7.60438 22.8204L6.87289 23.5518C7.11544 23.7943 7.43638 23.8522 7.71392 23.8411C7.99245 23.8299 8.29715 23.7486 8.60782 23.6297C9.2327 23.3906 9.99973 22.9532 10.8507 22.3726C12.5597 21.2066 14.6957 19.4017 16.8615 17.2359L16.1301 16.5044ZM7.60438 22.8204C7.64387 22.8598 7.61241 22.8735 7.61727 22.7522C7.62209 22.6318 7.66198 22.4459 7.76119 22.1865C7.95825 21.6715 8.34425 20.9814 8.90662 20.1571C10.0265 18.5157 11.7856 16.4292 13.9203 14.2947L13.1887 13.5632C11.0229 15.729 9.21811 17.865 8.05208 19.5741C7.4715 20.425 7.03409 21.192 6.795 21.8169C6.67614 22.1276 6.59477 22.4322 6.58362 22.7108C6.57251 22.9884 6.63036 23.3093 6.87289 23.5518L7.60438 22.8204ZM13.9203 14.2947C16.0548 12.1601 18.1413 10.4009 19.7826 9.28102C20.6069 8.71866 21.2971 8.33266 21.8122 8.13559C22.0714 8.03639 22.2574 7.99651 22.3778 7.99169C22.4992 7.98682 22.4854 8.01828 22.4459 7.9788L23.1774 7.2473C22.9349 7.00476 22.6139 6.94691 22.3364 6.95803C22.0578 6.96918 21.7532 7.05056 21.4424 7.16942C20.8176 7.40851 20.0505 7.84592 19.1997 8.42649C17.4906 9.59252 15.3546 11.3974 13.1887 13.5632L13.9203 14.2947ZM20.5136 6.0465C20.4742 6.00701 20.5056 5.99325 20.5007 6.11464C20.4959 6.23502 20.4561 6.42097 20.3568 6.68026C20.1598 7.19531 19.7737 7.8855 19.2114 8.70976C18.0915 10.3511 16.3323 12.4376 14.1977 14.5721L14.9292 15.3037C17.095 13.1378 18.8999 11.0018 20.066 9.29279C20.6465 8.44184 21.0839 7.67481 21.323 7.04993C21.4418 6.73926 21.5232 6.43456 21.5344 6.15604C21.5455 5.8785 21.4876 5.55755 21.2452 5.31501L20.5136 6.0465ZM14.1977 14.5721C12.0632 16.7068 9.97674 18.4659 8.33536 19.5857C7.51108 20.1482 6.82091 20.5342 6.30586 20.7312C6.04657 20.8304 5.86062 20.8704 5.74023 20.8751C5.61885 20.88 5.6326 20.8485 5.67209 20.8881L4.9406 21.6195C5.18315 21.862 5.50408 21.92 5.78163 21.9088C6.06016 21.8976 6.36486 21.8163 6.67552 21.6974C7.30041 21.4584 8.06743 21.0209 8.91838 20.4403C10.6274 19.2743 12.7634 17.4695 14.9292 15.3037L14.1977 14.5721ZM5.67209 20.8881C5.71158 20.9275 5.68012 20.9412 5.68498 20.8199C5.68981 20.6995 5.72968 20.5136 5.82889 20.2542C6.02596 19.7393 6.41196 19.0491 6.97432 18.2248C8.09419 16.5834 9.85338 14.4969 11.988 12.3624L11.2565 11.6309C9.09066 13.7967 7.28582 15.9327 6.11979 17.6417C5.53922 18.4927 5.1018 19.2597 4.86272 19.8846C4.74385 20.1953 4.66248 20.4999 4.65133 20.7785C4.64021 21.0561 4.69806 21.377 4.9406 21.6195L5.67209 20.8881ZM11.988 12.3624C14.1225 10.2278 16.209 8.4686 17.8504 7.34873C18.6747 6.78636 19.3648 6.40036 19.8798 6.2033C20.1392 6.1041 20.3251 6.06421 20.4455 6.05939C20.5668 6.05452 20.5531 6.08598 20.5136 6.0465L21.2452 5.31501C21.0026 5.07247 20.6817 5.01462 20.4041 5.02573C20.1255 5.03689 19.8209 5.11826 19.5102 5.23713C18.8853 5.47621 18.1183 5.91362 17.2674 6.4942C15.5583 7.66023 13.4223 9.46507 11.2565 11.6309L11.988 12.3624ZM24.3782 9.9111C24.3388 9.87161 24.3702 9.85785 24.3654 9.97924C24.3605 10.0996 24.3207 10.2856 24.2215 10.5449C24.0244 11.06 23.6383 11.7501 23.076 12.5743C21.9562 14.2157 20.1969 16.3022 18.0624 18.4367L18.7938 19.1682C20.9596 17.0024 22.7645 14.8664 23.9306 13.1574C24.5111 12.3064 24.9485 11.5394 25.1876 10.9145C25.3064 10.6038 25.3878 10.2992 25.399 10.0206C25.4101 9.7431 25.3523 9.42215 25.1097 9.1796L24.3782 9.9111ZM18.0624 18.4367C15.9278 20.5713 13.8414 22.3305 12.1999 23.4504C11.3757 24.0128 10.6855 24.3988 10.1705 24.5958C9.91117 24.6951 9.72521 24.7349 9.60483 24.7397C9.48345 24.7446 9.4972 24.7132 9.53668 24.7527L8.8052 25.4842C9.04774 25.7266 9.36868 25.7845 9.64623 25.7734C9.92476 25.7622 10.2294 25.6809 10.5401 25.5621C11.1651 25.3229 11.932 24.8855 12.783 24.305C14.4921 23.1389 16.6281 21.334 18.7938 19.1682L18.0624 18.4367ZM9.53668 24.7527C9.57618 24.7921 9.54471 24.8058 9.54957 24.6845C9.55439 24.5641 9.59428 24.3782 9.69349 24.1188C9.89055 23.6038 10.2766 22.9137 10.8389 22.0894C11.9588 20.448 13.7179 18.3615 15.8525 16.227L15.121 15.4955C12.9552 17.6613 11.1504 19.7973 9.98439 21.5064C9.4038 22.3573 8.9664 23.1243 8.72732 23.7492C8.60845 24.0599 8.52708 24.3645 8.51592 24.6431C8.50481 24.9207 8.56266 25.2416 8.8052 25.4842L9.53668 24.7527ZM15.8525 16.227C17.9872 14.0924 20.0736 12.3332 21.7149 11.2134C22.5392 10.6509 23.2294 10.265 23.7445 10.0679C24.0037 9.9687 24.1897 9.92881 24.3101 9.92399C24.4315 9.91912 24.4177 9.95058 24.3782 9.9111L25.1097 9.1796C24.8672 8.93707 24.5462 8.87922 24.2686 8.89033C23.9902 8.90148 23.6855 8.98286 23.3747 9.10173C22.7499 9.34081 21.9828 9.77822 21.1319 10.3588C19.4229 11.5248 17.2869 13.3297 15.121 15.4955L15.8525 16.227Z" fill="#E28903"/>
</g>
<defs>
<clipPath id="clip0_1791_1799">
<rect width="30" height="30" fill="white"/>
</clipPath>
</defs>
</svg>
