<svg width="29" height="30" viewBox="0 0 29 30" fill="none" xmlns="http://www.w3.org/2000/svg">
<g clip-path="url(#clip0_1486_1078)">
<path fill-rule="evenodd" clip-rule="evenodd" d="M12.9809 21.2628C12.3369 21.9067 11.4929 22.2287 10.6489 22.2287C9.80486 22.2287 8.96085 21.9067 8.31689 21.2628C7.67293 20.6188 7.35095 19.7748 7.35095 18.9308C7.35095 18.0868 7.67293 17.2428 8.31689 16.5988L10.2689 14.6468L11.2449 13.6709L15.9088 18.3348L14.9329 19.3108L12.9809 21.2628ZM11.0724 18.8516C11.4957 18.4282 11.4957 17.7419 11.0724 17.3186C10.649 16.8953 9.96268 16.8953 9.53937 17.3186C9.11607 17.7419 9.11607 18.4282 9.53937 18.8516C9.96268 19.2749 10.649 19.2749 11.0724 18.8516Z" fill="#825454"/>
<path fill-rule="evenodd" clip-rule="evenodd" d="M16.1247 8.79065C16.7686 8.14669 17.6127 7.82471 18.4567 7.82471C19.3007 7.82471 20.1447 8.14668 20.7887 8.79064C21.4326 9.4346 21.7546 10.2786 21.7546 11.1226C21.7546 11.9666 21.4326 12.8107 20.7887 13.4546L18.8367 15.4066L17.8607 16.3826L13.1967 11.7186L14.1727 10.7426L16.1247 8.79065ZM16.9535 12.97C17.3768 12.5467 17.3768 11.8604 16.9535 11.4371C16.5302 11.0138 15.8439 11.0138 15.4206 11.4371C14.9973 11.8604 14.9973 12.5467 15.4206 12.97C15.8439 13.3933 16.5302 13.3933 16.9535 12.97ZM20.4886 11.8125C20.9119 11.3892 20.9119 10.7028 20.4886 10.2795C20.0653 9.85623 19.379 9.85623 18.9557 10.2795C18.5324 10.7028 18.5324 11.3892 18.9557 11.8125C19.379 12.2358 20.0653 12.2358 20.4886 11.8125Z" fill="#825454"/>
<path d="M4.96171 5.43556L5.31526 5.08201C5.22149 4.98824 5.09431 4.93556 4.96171 4.93556C4.8291 4.93556 4.70192 4.98824 4.60815 5.08201L4.96171 5.43556ZM24.1436 24.6175L23.7901 24.971C23.8838 25.0648 24.011 25.1175 24.1436 25.1175C24.2762 25.1175 24.4034 25.0648 24.4972 24.971L24.1436 24.6175ZM22.9461 26.3131C23.1675 26.1481 23.2131 25.8348 23.0481 25.6134C22.883 25.392 22.5697 25.3464 22.3484 25.5114L22.9461 26.3131ZM6.23588 3.68319C6.01338 3.84673 5.96558 4.15969 6.12913 4.38219C6.29268 4.60469 6.60563 4.65249 6.82812 4.48894L6.23588 3.68319ZM22.1385 8.1479C22.3338 7.95263 22.3338 7.63605 22.1385 7.44079C21.9432 7.24553 21.6266 7.24553 21.4314 7.44079L22.1385 8.1479ZM6.96704 21.9051C6.77178 22.1004 6.77178 22.417 6.96704 22.6122C7.1623 22.8075 7.47888 22.8075 7.67414 22.6122L6.96704 21.9051ZM10.1488 23.5944C10.1488 23.8706 10.3727 24.0944 10.6488 24.0944C10.925 24.0944 11.1488 23.8706 11.1488 23.5944H10.1488ZM12.9808 21.2625L12.6272 20.9089L12.9808 21.2625ZM5.98484 18.4305C5.70869 18.4305 5.48484 18.6543 5.48484 18.9305C5.48484 19.2066 5.70869 19.4305 5.98484 19.4305V18.4305ZM18.9567 6.45864C18.9567 6.1825 18.7328 5.95864 18.4567 5.95864C18.1805 5.95864 17.9567 6.1825 17.9567 6.45864H18.9567ZM23.1206 11.6226C23.3968 11.6226 23.6206 11.3988 23.6206 11.1226C23.6206 10.8465 23.3968 10.6226 23.1206 10.6226V11.6226ZM7.6649 15.2395C7.46964 15.0442 7.15306 15.0442 6.9578 15.2395C6.76254 15.4347 6.76254 15.7513 6.9578 15.9466L7.6649 15.2395ZM15.4728 7.4316C15.2775 7.23633 14.9609 7.23633 14.7657 7.4316C14.5704 7.62686 14.5704 7.94344 14.7657 8.1387L15.4728 7.4316ZM13.6327 22.6215C13.828 22.8168 14.1446 22.8168 14.3398 22.6215C14.5351 22.4262 14.5351 22.1096 14.3398 21.9144L13.6327 22.6215ZM21.4406 14.8136C21.6358 15.0089 21.9524 15.0089 22.1477 14.8136C22.3429 14.6184 22.3429 14.3018 22.1477 14.1065L21.4406 14.8136ZM17.2383 17.005C17.043 16.8097 16.7264 16.8097 16.5312 17.005C16.3359 17.2002 16.3359 17.5168 16.5312 17.7121L17.2383 17.005ZM14.9328 19.3105L14.5792 18.9569L14.9328 19.3105ZM18.8367 15.4066L18.4831 15.053L18.8367 15.4066ZM11.8672 13.0481C12.0625 13.2434 12.3791 13.2434 12.5743 13.0481C12.7696 12.8529 12.7696 12.5363 12.5743 12.341L11.8672 13.0481ZM10.2688 14.6465L10.6224 15.0001L10.2688 14.6465ZM9.61687 13.2875C9.4216 13.0922 9.10501 13.0922 8.90975 13.2875C8.71449 13.4828 8.71449 13.7993 8.90975 13.9946L9.61687 13.2875ZM11.5688 11.3355C11.3736 11.1403 11.057 11.1403 10.8617 11.3355C10.6665 11.5308 10.6665 11.8474 10.8617 12.0426L11.5688 11.3355ZM13.5208 9.38356C13.3255 9.1883 13.009 9.1883 12.8137 9.38356C12.6184 9.57882 12.6184 9.8954 12.8137 10.0907L13.5208 9.38356ZM19.4886 16.7656C19.6839 16.9609 20.0005 16.9609 20.1957 16.7656C20.391 16.5703 20.391 16.2538 20.1957 16.0585L19.4886 16.7656ZM17.5367 18.7176C17.7319 18.9128 18.0485 18.9128 18.2438 18.7176C18.439 18.5223 18.439 18.2057 18.2438 18.0105L17.5367 18.7176ZM15.5847 20.6695C15.7799 20.8648 16.0965 20.8648 16.2918 20.6695C16.4871 20.4743 16.4871 20.1577 16.2918 19.9624L15.5847 20.6695ZM4.03637 6.45864L3.64911 6.14236L4.03637 6.45864ZM25.0689 23.5944L25.4562 23.9107L25.0689 23.5944ZM11.2448 13.6706L11.5983 13.317C11.5046 13.2232 11.3774 13.1706 11.2448 13.1706C11.1122 13.1706 10.985 13.2232 10.8912 13.317L11.2448 13.6706ZM13.1967 11.7186L12.8432 11.365C12.6479 11.5603 12.6479 11.8769 12.8432 12.0721L13.1967 11.7186ZM17.8607 16.3826L17.5072 16.7361C17.7024 16.9314 18.019 16.9314 18.2143 16.7361L17.8607 16.3826ZM15.9087 18.3345L16.2623 18.6881C16.3561 18.5943 16.4087 18.4671 16.4087 18.3345C16.4087 18.2019 16.3561 18.0747 16.2623 17.981L15.9087 18.3345ZM22.3484 25.5114C17.2333 29.3249 9.96007 28.9087 5.31526 24.2639L4.60815 24.971C9.60916 29.972 17.4387 30.4191 22.9461 26.3131L22.3484 25.5114ZM6.82812 4.48894C11.9393 0.732077 19.1667 1.16581 23.7901 5.78911L24.4972 5.08201C19.5193 0.104125 11.7391 -0.361802 6.23588 3.68319L6.82812 4.48894ZM4.60815 5.78912L23.7901 24.971L24.4972 24.2639L5.31526 5.08201L4.60815 5.78912ZM21.1422 9.14418L22.1385 8.1479L21.4314 7.44079L20.4351 8.43707L21.1422 9.14418ZM7.67414 22.6122L8.67037 21.616L7.96327 20.9089L6.96704 21.9051L7.67414 22.6122ZM10.1488 22.2284V23.5944H11.1488V22.2284H10.1488ZM12.6272 20.9089C12.0808 21.4553 11.3656 21.7284 10.6488 21.7284V22.7284C11.62 22.7284 12.5929 22.3575 13.3344 21.616L12.6272 20.9089ZM10.6488 21.7284C9.93197 21.7284 9.2168 21.4553 8.67037 20.9089L7.96327 21.616C8.70477 22.3575 9.6776 22.7284 10.6488 22.7284V21.7284ZM7.35089 18.4305H5.98484V19.4305H7.35089V18.4305ZM8.67037 20.9089C8.12394 20.3625 7.85089 19.6473 7.85089 18.9305H6.85089C6.85089 19.9017 7.22178 20.8745 7.96327 21.616L8.67037 20.9089ZM7.85089 18.9305C7.85089 18.2137 8.12394 17.4985 8.67037 16.952L7.96327 16.2449C7.22178 16.9864 6.85089 17.9593 6.85089 18.9305H7.85089ZM18.9567 7.82469V6.45864H17.9567V7.82469H18.9567ZM16.4782 9.14418C17.0247 8.59775 17.7398 8.32469 18.4567 8.32469V7.32469C17.4855 7.32469 16.5126 7.69558 15.7711 8.43707L16.4782 9.14418ZM18.4567 8.32469C19.1735 8.32469 19.8887 8.59775 20.4351 9.14418L21.1422 8.43707C20.4007 7.69558 19.4279 7.32468 18.4567 7.32469V8.32469ZM21.7546 11.6226H23.1206V10.6226H21.7546V11.6226ZM20.4351 9.14418C20.9815 9.6906 21.2546 10.4058 21.2546 11.1226H22.2546C22.2546 10.1514 21.8837 9.17856 21.1422 8.43707L20.4351 9.14418ZM21.2546 11.1226C21.2546 11.8395 20.9815 12.5546 20.4351 13.1011L21.1422 13.8082C21.8837 13.0667 22.2546 12.0938 22.2546 11.1226H21.2546ZM8.67037 16.2449L7.6649 15.2395L6.9578 15.9466L7.96327 16.952L8.67037 16.2449ZM16.4782 8.43707L15.4728 7.4316L14.7657 8.1387L15.7711 9.14418L16.4782 8.43707ZM14.3398 21.9144L13.3344 20.9089L12.6272 21.616L13.6327 22.6215L14.3398 21.9144ZM22.1477 14.1065L21.1422 13.1011L20.4351 13.8082L21.4406 14.8136L22.1477 14.1065ZM14.5792 18.9569L12.6272 20.9089L13.3344 21.616L15.2863 19.6641L14.5792 18.9569ZM20.4351 13.1011L18.4831 15.053L19.1902 15.7601L21.1422 13.8082L20.4351 13.1011ZM14.5263 11.0962L16.4782 9.14418L15.7711 8.43707L13.8192 10.3891L14.5263 11.0962ZM8.67037 16.952L10.6224 15.0001L9.91523 14.293L7.96327 16.2449L8.67037 16.952ZM10.6224 14.293L9.61687 13.2875L8.90975 13.9946L9.91523 15.0001L10.6224 14.293ZM12.5743 12.341L11.5688 11.3355L10.8617 12.0426L11.8672 13.0481L12.5743 12.341ZM14.5263 10.3891L13.5208 9.38356L12.8137 10.0907L13.8192 11.0962L14.5263 10.3891ZM20.1957 16.0585L19.1902 15.053L18.4831 15.7601L19.4886 16.7656L20.1957 16.0585ZM18.2438 18.0105L17.2383 17.005L16.5312 17.7121L17.5367 18.7176L18.2438 18.0105ZM16.2918 19.9624L15.2863 18.9569L14.5792 19.6641L15.5847 20.6695L16.2918 19.9624ZM10.7187 17.6719C10.9467 17.8999 10.9467 18.2697 10.7187 18.4977L11.4258 19.2048C12.0444 18.5862 12.0444 17.5833 11.4258 16.9648L10.7187 17.6719ZM10.7187 18.4977C10.4907 18.7257 10.1209 18.7257 9.89287 18.4977L9.18575 19.2048C9.80433 19.8234 10.8072 19.8234 11.4258 19.2048L10.7187 18.4977ZM9.89287 18.4977C9.66481 18.2697 9.66481 17.8999 9.89287 17.6719L9.18575 16.9648C8.56718 17.5833 8.56718 18.5862 9.18575 19.2048L9.89287 18.4977ZM9.89287 17.6719C10.1209 17.4438 10.4907 17.4438 10.7187 17.6719L11.4258 16.9648C10.8072 16.3462 9.80433 16.3462 9.18575 16.9648L9.89287 17.6719ZM16.6 11.7906C16.828 12.0187 16.828 12.3884 16.6 12.6164L17.3071 13.3235C17.9256 12.705 17.9256 11.7021 17.3071 11.0835L16.6 11.7906ZM16.6 12.6164C16.3719 12.8445 16.0022 12.8445 15.7741 12.6164L15.067 13.3235C15.6856 13.9421 16.6885 13.9421 17.3071 13.3235L16.6 12.6164ZM15.7741 12.6164C15.5461 12.3884 15.5461 12.0187 15.7741 11.7906L15.067 11.0835C14.4485 11.7021 14.4485 12.705 15.067 13.3235L15.7741 12.6164ZM15.7741 11.7906C16.0022 11.5626 16.3719 11.5626 16.6 11.7906L17.3071 11.0835C16.6885 10.4649 15.6856 10.4649 15.067 11.0835L15.7741 11.7906ZM20.135 10.6331C20.3631 10.8611 20.3631 11.2309 20.135 11.4589L20.8421 12.166C21.4607 11.5474 21.4607 10.5445 20.8421 9.92596L20.135 10.6331ZM20.135 11.4589C19.907 11.687 19.5373 11.687 19.3092 11.4589L18.6021 12.166C19.2207 12.7846 20.2236 12.7846 20.8421 12.166L20.135 11.4589ZM19.3092 11.4589C19.0812 11.2309 19.0812 10.8611 19.3092 10.6331L18.6021 9.92596C17.9835 10.5445 17.9835 11.5474 18.6021 12.166L19.3092 11.4589ZM19.3092 10.6331C19.5373 10.405 19.907 10.405 20.135 10.6331L20.8421 9.92596C20.2236 9.30739 19.2207 9.30739 18.6021 9.92596L19.3092 10.6331ZM5.31526 24.2639C0.530537 19.4792 0.233178 11.9057 4.42362 6.77492L3.64911 6.14236C-0.862807 11.6667 -0.543282 19.8196 4.60815 24.971L5.31526 24.2639ZM4.42362 6.77492C4.70107 6.43522 4.99827 6.10611 5.31526 5.78912L4.60815 5.08201C4.26742 5.42275 3.94773 5.77674 3.64911 6.14236L4.42362 6.77492ZM23.7901 5.78911C28.5748 10.5739 28.8721 18.1474 24.6817 23.2782L25.4562 23.9107C29.9681 18.3864 29.6486 10.2335 24.4972 5.08201L23.7901 5.78911ZM24.6817 23.2782C24.4042 23.6178 24.107 23.9469 23.7901 24.2639L24.4972 24.971C24.8379 24.6303 25.1576 24.2763 25.4562 23.9107L24.6817 23.2782ZM10.6224 15.0001L11.5983 14.0241L10.8912 13.317L9.91523 14.293L10.6224 15.0001ZM13.5503 12.0721L14.5263 11.0962L13.8192 10.3891L12.8432 11.365L13.5503 12.0721ZM18.4831 15.053L17.5072 16.029L18.2143 16.7361L19.1902 15.7601L18.4831 15.053ZM15.5552 17.981L14.5792 18.9569L15.2863 19.6641L16.2623 18.6881L15.5552 17.981ZM12.8432 12.0721L17.5072 16.7361L18.2143 16.029L13.5503 11.365L12.8432 12.0721ZM16.2623 17.981L11.5983 13.317L10.8912 14.0241L15.5552 18.6881L16.2623 17.981Z" fill="#825454"/>
</g>
<defs>
<clipPath id="clip0_1486_1078">
<rect width="29" height="30" fill="white"/>
</clipPath>
</defs>
</svg>
