<svg width="30" height="30" viewBox="0 0 30 30" fill="none" xmlns="http://www.w3.org/2000/svg">
<g clip-path="url(#clip0_1787_1836)">
<path d="M1.36338 17.8451V17.3278C1.20492 17.3278 1.05519 17.4005 0.957114 17.5249C0.859036 17.6494 0.82342 17.812 0.860472 17.966L1.36338 17.8451ZM28.649 18.3623C28.9347 18.3623 29.1663 18.1307 29.1663 17.8451C29.1663 17.5595 28.9347 17.3278 28.649 17.3278V18.3623ZM12.5319 14.9504C12.3299 15.1524 12.3299 15.4799 12.5319 15.6819C12.7338 15.8839 13.0614 15.8839 13.2634 15.6819L12.5319 14.9504ZM17.2377 11.7078C17.4396 11.5058 17.4396 11.1783 17.2377 10.9763C17.0356 10.7743 16.7081 10.7743 16.5062 10.9763L17.2377 11.7078ZM16.5062 14.9504C16.3041 15.1524 16.3041 15.4799 16.5061 15.6819C16.7081 15.8839 17.0356 15.8839 17.2377 15.6819L16.5062 14.9504ZM21.2118 11.7078C21.4139 11.5058 21.4139 11.1783 21.2118 10.9763C21.0099 10.7743 20.6824 10.7743 20.4804 10.9763L21.2118 11.7078ZM8.55767 14.9504C8.35567 15.1524 8.35566 15.4799 8.55766 15.6819C8.75965 15.8839 9.08715 15.8839 9.28915 15.6819L8.55767 14.9504ZM13.2634 11.7078C13.4654 11.5058 13.4654 11.1783 13.2634 10.9763C13.0614 10.7743 12.7339 10.7743 12.5319 10.9763L13.2634 11.7078ZM4.58343 14.9504C4.38144 15.1524 4.38143 15.4799 4.58342 15.6819C4.78542 15.8839 5.11292 15.8839 5.31492 15.6819L4.58343 14.9504ZM9.28915 11.7078C9.49114 11.5058 9.49115 11.1783 9.28916 10.9763C9.08717 10.7743 8.75967 10.7743 8.55767 10.9763L9.28915 11.7078ZM20.4804 14.9504C20.2783 15.1524 20.2783 15.4799 20.4804 15.6819C20.6824 15.8839 21.0098 15.8839 21.2118 15.6819L20.4804 14.9504ZM25.1861 11.7078C25.388 11.5058 25.388 11.1783 25.1861 10.9763C24.9841 10.7743 24.6566 10.7743 24.4546 10.9763L25.1861 11.7078ZM24.4542 14.9504C24.2522 15.1524 24.2522 15.4799 24.4542 15.6819C24.6561 15.8839 24.9837 15.8839 25.1857 15.6819L24.4542 14.9504ZM0.609204 14.9504C0.407206 15.1524 0.407202 15.4799 0.609194 15.6819C0.811187 15.8839 1.13869 15.8839 1.34068 15.6819L0.609204 14.9504ZM5.31492 11.7078C5.51692 11.5058 5.51692 11.1783 5.31493 10.9763C5.11293 10.7743 4.78544 10.7743 4.58343 10.9763L5.31492 11.7078ZM28.4266 20.1791C28.5371 19.9157 28.4133 19.6125 28.1499 19.502C27.8864 19.3914 27.5833 19.5154 27.4727 19.7787L28.4266 20.1791ZM2.06276 19.9789L2.53969 19.7787L2.06276 19.9789ZM1.58583 8.92543C1.47527 9.18883 1.59917 9.49199 1.86257 9.60255C2.12597 9.71312 2.42912 9.58922 2.53969 9.32582L1.58583 8.92543ZM27.9496 9.12563L27.4727 9.32582L27.9496 9.12563ZM28.6921 11.4441L29.0579 11.8098C29.1834 11.6843 29.2358 11.5032 29.1966 11.33L28.6921 11.4441ZM1.36338 18.3623H28.649V17.3278H1.36338V18.3623ZM13.2634 15.6819L17.2377 11.7078L16.5062 10.9763L12.5319 14.9504L13.2634 15.6819ZM17.2377 15.6819L21.2118 11.7078L20.4804 10.9763L16.5062 14.9504L17.2377 15.6819ZM9.28915 15.6819L13.2634 11.7078L12.5319 10.9763L8.55767 14.9504L9.28915 15.6819ZM5.31492 15.6819L9.28915 11.7078L8.55767 10.9763L4.58343 14.9504L5.31492 15.6819ZM21.2118 15.6819L25.1861 11.7078L24.4546 10.9763L20.4804 14.9504L21.2118 15.6819ZM1.34068 15.6819L5.31492 11.7078L4.58343 10.9763L0.609204 14.9504L1.34068 15.6819ZM27.4727 19.7787C25.4288 24.6481 20.6161 28.0664 15.0062 28.0664V29.1009C21.0472 29.1009 26.2271 25.4191 28.4266 20.1791L27.4727 19.7787ZM15.0062 28.0664C9.39633 28.0664 4.58364 24.6481 2.53969 19.7787L1.58583 20.1791C3.78536 25.4191 8.96522 29.1009 15.0062 29.1009V28.0664ZM2.53969 19.7787C2.26269 19.1188 2.0366 18.4324 1.86628 17.7242L0.860472 17.966C1.04393 18.7288 1.28749 19.4684 1.58583 20.1791L2.53969 19.7787ZM2.53969 9.32582C4.58364 4.45645 9.39633 1.03814 15.0062 1.03814V0.00366211C8.96522 0.00366211 3.78536 3.68543 1.58583 8.92543L2.53969 9.32582ZM15.0062 1.03814C20.6161 1.03814 25.4288 4.45645 27.4727 9.32582L28.4266 8.92543C26.2271 3.68543 21.0472 0.00366211 15.0062 0.00366211V1.03814ZM27.4727 9.32582C27.7728 10.0408 28.0132 10.7869 28.1877 11.5581L29.1966 11.33C29.0087 10.4993 28.7498 9.6955 28.4266 8.92543L27.4727 9.32582ZM25.1857 15.6819L29.0579 11.8098L28.3264 11.0783L24.4542 14.9504L25.1857 15.6819Z" fill="#E28903"/>
</g>
<defs>
<clipPath id="clip0_1787_1836">
<rect width="30" height="30" fill="white"/>
</clipPath>
</defs>
</svg>
