<svg width="30" height="30" viewBox="0 0 30 30" fill="none" xmlns="http://www.w3.org/2000/svg">
<g clip-path="url(#clip0_1791_1783)">
<path fill-rule="evenodd" clip-rule="evenodd" d="M8.49447 3.19861C9.05939 4.52792 9.75809 6.62981 9.21913 7.937C9.01103 8.44174 8.68851 9.02852 8.32136 9.69654C7.77086 10.6982 7.11997 11.8823 6.60382 13.2465C5.95448 14.8038 5.6658 16.4013 5.69437 17.9441C5.69437 17.9441 8.86927 14.5061 13.7999 12.3155C18.7305 10.1249 22.9872 11.3014 22.9872 11.3014C22.9872 11.3014 23.0663 9.32367 23.6344 5.90874C23.7446 5.24652 23.8229 4.67964 23.8775 4.196C21.5274 2.42086 18.601 1.36816 15.4288 1.36816C12.9065 1.36816 10.5398 2.03365 8.49447 3.19861Z" fill="#E28903"/>
<path d="M8.39035 11.0865C8.55501 10.8532 8.49927 10.5304 8.26584 10.3657C8.03241 10.2011 7.70968 10.2568 7.54502 10.4903L8.39035 11.0865ZM8.3453 24.8391L8.73032 24.4936L8.3453 24.8391ZM8.63666 25.6769L8.12088 25.638L8.63666 25.6769ZM23.5019 9.83157C23.4735 9.54732 23.22 9.33998 22.9357 9.36845C22.6515 9.39692 22.4442 9.65043 22.4726 9.93466L23.5019 9.83157ZM5.69438 17.9441L5.17722 17.9537L5.69438 17.9441ZM9.21914 7.93702L8.74095 7.73986L9.21914 7.93702ZM23.6344 5.90877L23.1242 5.82388L23.6344 5.90877ZM8.57082 27.6436L8.31765 28.0947C8.47832 28.1849 8.67482 28.1828 8.83353 28.0892C8.99224 27.9957 9.08919 27.8247 9.08805 27.6404L8.57082 27.6436ZM24.3802 26.2052L23.8634 26.2265C23.8714 26.423 23.9902 26.5979 24.1699 26.6777C24.3496 26.7577 24.5589 26.7288 24.7103 26.6034L24.3802 26.2052ZM23.5707 17.0094L23.0568 17.0676L23.5707 17.0094ZM8.32137 9.69656L8.77466 9.9457L8.32137 9.69656ZM6.97999 4.19602L7.29174 4.60876L6.97999 4.19602ZM25.6036 5.73763L25.2286 6.09387L25.6036 5.73763ZM10.5843 28.0196C10.3176 27.9172 10.0184 28.0503 9.91597 28.3169C9.81354 28.5836 9.94667 28.8829 10.2133 28.9853L10.5843 28.0196ZM22.9233 27.8716C23.1681 27.7243 23.247 27.4064 23.0997 27.1618C22.9523 26.917 22.6345 26.8381 22.3897 26.9855L22.9233 27.8716ZM7.96029 25.1845C8.07666 25.3141 8.13287 25.4789 8.12088 25.638L9.15244 25.7157C9.18672 25.261 9.02499 24.8221 8.73032 24.4936L7.96029 25.1845ZM23.1242 5.82388C22.8382 7.54342 22.6749 8.90301 22.5831 9.83496C22.5372 10.3009 22.5091 10.66 22.4925 10.9038C22.4842 11.0257 22.4787 11.1188 22.4753 11.1819C22.4736 11.2136 22.4724 11.2377 22.4717 11.2541C22.4713 11.2624 22.471 11.2687 22.4707 11.2732C22.4706 11.2754 22.4706 11.2772 22.4705 11.2784C22.4705 11.2791 22.4705 11.2796 22.4705 11.28C22.4705 11.2801 22.4705 11.2803 22.4704 11.2804C22.4704 11.2805 22.4704 11.2806 22.4704 11.2806C22.4704 11.2807 22.4704 11.2807 22.9873 11.3014C23.5041 11.3221 23.5041 11.3221 23.5041 11.3221V11.3222C23.5041 11.3222 23.5041 11.3222 23.5041 11.3221C23.5041 11.322 23.5041 11.3218 23.5042 11.3215C23.5042 11.3208 23.5042 11.3197 23.5043 11.3181C23.5044 11.3147 23.5047 11.3096 23.505 11.3025C23.5056 11.2885 23.5068 11.2667 23.5083 11.2376C23.5114 11.1792 23.5166 11.0911 23.5246 10.9742C23.5405 10.7405 23.5677 10.3917 23.6126 9.93639C23.7023 9.02576 23.8626 7.68903 24.1446 5.99364L23.1242 5.82388ZM22.4726 9.93466C22.4714 9.92171 22.4727 9.94477 22.4719 10.0473C22.4712 10.1331 22.4696 10.2437 22.4682 10.3776C22.4653 10.6413 22.463 10.9806 22.4702 11.3126L23.5044 11.2902C23.4976 10.9758 23.4997 10.6505 23.5026 10.3889C23.504 10.2602 23.5056 10.1429 23.5063 10.0554C23.5069 9.98465 23.5077 9.88898 23.5019 9.83157L22.4726 9.93466ZM22.9873 11.3014C23.1251 10.8029 23.1248 10.8028 23.1246 10.8027C23.1245 10.8027 23.1243 10.8027 23.1241 10.8026C23.1237 10.8025 23.1233 10.8024 23.1228 10.8023C23.1217 10.802 23.1205 10.8015 23.1189 10.8011C23.1158 10.8003 23.1117 10.7993 23.1065 10.7979C23.0963 10.7951 23.0819 10.7914 23.0635 10.7868C23.0269 10.7777 22.9742 10.7651 22.9066 10.7501C22.7712 10.7201 22.5755 10.6808 22.3267 10.641C21.8293 10.5615 21.1176 10.4802 20.2488 10.4698C18.5116 10.4488 16.1377 10.7108 13.5898 11.8428L14.0099 12.7882C16.3925 11.7296 18.6124 11.4846 20.2363 11.5042C21.0479 11.514 21.7087 11.5899 22.1635 11.6625C22.3908 11.6988 22.5662 11.7343 22.683 11.7601C22.7414 11.773 22.785 11.7836 22.8131 11.7906C22.827 11.794 22.8372 11.7967 22.8433 11.7983C22.8464 11.7991 22.8484 11.7996 22.8495 11.7999C22.85 11.8 22.8502 11.8001 22.8503 11.8001C22.8503 11.8001 22.8502 11.8001 22.8501 11.8001C22.85 11.8001 22.8499 11.8 22.8499 11.8C22.8497 11.8 22.8495 11.7999 22.9873 11.3014ZM13.5898 11.8428C11.0725 12.9612 9.00797 14.3957 7.57411 15.5482C6.8564 16.125 6.29462 16.6329 5.91094 16.998C5.71904 17.1807 5.57156 17.3277 5.47124 17.4299C5.42108 17.481 5.38269 17.5209 5.35644 17.5485C5.34331 17.5624 5.33321 17.5731 5.32619 17.5806C5.32268 17.5843 5.31993 17.5872 5.31796 17.5894C5.31698 17.5904 5.31618 17.5913 5.31559 17.5919C5.31529 17.5923 5.31505 17.5925 5.31484 17.5927C5.31474 17.5928 5.31462 17.593 5.31457 17.593C5.31447 17.5931 5.31438 17.5932 5.69438 17.9441C6.07438 18.295 6.0743 18.2951 6.07425 18.2952C6.07425 18.2952 6.07421 18.2952 6.0742 18.2952C6.0742 18.2952 6.07423 18.2952 6.07433 18.2951C6.0745 18.2949 6.07487 18.2945 6.07543 18.2939C6.07655 18.2927 6.07843 18.2907 6.08108 18.2879C6.08638 18.2822 6.09471 18.2734 6.10603 18.2615C6.1287 18.2376 6.16333 18.2016 6.20962 18.1544C6.30219 18.0601 6.44126 17.9214 6.62405 17.7475C6.98975 17.3995 7.52985 16.911 8.22219 16.3544C9.60843 15.2403 11.5966 13.8604 14.0099 12.7882L13.5898 11.8428ZM8.75047 3.64808C10.7198 2.52638 12.9987 1.88543 15.4288 1.88543V0.850952C12.8145 0.850952 10.3597 1.54097 8.23848 2.74919L8.75047 3.64808ZM9.69733 8.13419C10.0272 7.334 9.96116 6.35502 9.77715 5.47076C9.58956 4.56919 9.2596 3.67657 8.97052 2.99633L8.01844 3.40093C8.29427 4.05001 8.59613 4.87299 8.76436 5.6815C8.9362 6.50732 8.94999 7.23286 8.74095 7.73986L9.69733 8.13419ZM15.4288 1.88543C18.4847 1.88543 21.3023 2.8991 23.5658 4.60876L24.1893 3.78329C21.7525 1.94269 18.7173 0.850952 15.4288 0.850952V1.88543ZM23.3636 4.13794C23.3101 4.61169 23.2331 5.1696 23.1242 5.82388L24.1446 5.99364C24.2562 5.32351 24.3358 4.74763 24.3916 4.2541L23.3636 4.13794ZM8.824 27.1926C4.69965 24.8775 1.91467 20.4635 1.91467 15.3995H0.880188C0.880188 20.8525 3.88038 25.6041 8.31765 28.0947L8.824 27.1926ZM8.12088 25.638C8.06886 26.328 8.04961 27.002 8.05359 27.6468L9.08805 27.6404C9.08423 27.0204 9.10275 26.3747 9.15244 25.7157L8.12088 25.638ZM28.9429 15.3995C28.9429 19.586 27.0399 23.3275 24.05 25.8071L24.7103 26.6034C27.9271 23.9355 29.9774 19.9067 29.9774 15.3995H28.9429ZM6.12006 13.0635C5.58094 14.4883 5.17909 16.1178 5.17714 17.9436L6.21162 17.9447C6.21341 16.273 6.58086 14.7689 7.0876 13.4295L6.12006 13.0635ZM7.54502 10.4903C6.9605 11.3189 6.48967 12.1763 6.12642 13.0475L7.08124 13.4456C7.41498 12.6452 7.84891 11.8541 8.39035 11.0865L7.54502 10.4903ZM6.12642 13.0475C4.3059 17.4137 5.19726 22.1045 7.96029 25.1845L8.73032 24.4936C6.24182 21.7197 5.40952 17.4549 7.08124 13.4456L6.12642 13.0475ZM24.8969 26.184C24.7636 22.9386 24.4192 19.9027 24.0846 16.9511L23.0568 17.0676C23.3918 20.0235 23.7317 23.0237 23.8634 26.2265L24.8969 26.184ZM24.0846 16.9511C23.8672 15.0328 23.654 13.1516 23.5028 11.2602L22.4717 11.3426C22.6244 13.2539 22.8396 15.1522 23.0568 17.0676L24.0846 16.9511ZM8.73032 24.4936C7.16724 22.7513 6.25757 20.4214 6.21153 17.9346L5.17722 17.9537C5.22767 20.6789 6.22475 23.2498 7.96029 25.1845L8.73032 24.4936ZM8.74095 7.73986C8.54626 8.21205 8.24008 8.7706 7.86808 9.44742L8.77466 9.9457C9.13696 9.2865 9.4758 8.67149 9.69733 8.13419L8.74095 7.73986ZM7.86808 9.44742C7.31882 10.4467 6.65082 11.6607 6.12006 13.0635L7.0876 13.4295C7.58914 12.1041 8.22291 10.9496 8.77466 9.9457L7.86808 9.44742ZM6.12642 13.0475C5.4495 14.671 5.14734 16.3394 5.17722 17.9537L6.21153 17.9346C6.18429 16.4632 6.45948 14.9368 7.08124 13.4456L6.12642 13.0475ZM1.91467 15.3995C1.91467 10.9916 4.02457 7.07647 7.29174 4.60876L6.66824 3.78329C3.15339 6.43807 0.880188 10.6534 0.880188 15.3995H1.91467ZM7.29174 4.60876C7.75564 4.25837 8.2428 3.93724 8.75047 3.64808L8.23848 2.74919C7.69191 3.0605 7.16752 3.40619 6.66824 3.78329L7.29174 4.60876ZM23.5658 4.60876C24.1603 5.05772 24.7164 5.55467 25.2286 6.09387L25.9787 5.38141C25.4275 4.80123 24.8291 4.26645 24.1893 3.78329L23.5658 4.60876ZM25.2286 6.09387C27.5309 8.51764 28.9429 11.7932 28.9429 15.3995H29.9774C29.9774 11.5176 28.4563 7.98974 25.9787 5.38141L25.2286 6.09387ZM15.4288 28.9137C13.7206 28.9137 12.0875 28.597 10.5843 28.0196L10.2133 28.9853C11.8331 29.6074 13.5918 29.9482 15.4288 29.9482V28.9137ZM22.3897 26.9855C20.357 28.2095 17.9759 28.9137 15.4288 28.9137V29.9482C18.1692 29.9482 20.7341 29.19 22.9233 27.8716L22.3897 26.9855Z" fill="#E28903"/>
</g>
<defs>
<clipPath id="clip0_1791_1783">
<rect width="30" height="30" fill="white"/>
</clipPath>
</defs>
</svg>
