<svg width="30" height="30" viewBox="0 0 30 30" fill="none" xmlns="http://www.w3.org/2000/svg">
<g clip-path="url(#clip0_1791_1795)">
<path d="M25.3442 25.3443L24.9654 25.7231C25.1746 25.9323 25.5138 25.9323 25.723 25.7231L25.3442 25.3443ZM4.79218 4.79227L5.17099 4.41341C4.96178 4.20425 4.62258 4.20425 4.41337 4.41341L4.79218 4.79227ZM6.65968 2.56105C6.41432 2.72639 6.3495 3.05932 6.51482 3.30468C6.68015 3.55005 7.01304 3.61492 7.2584 3.4496L6.65968 2.56105ZM23.3699 27.6467C23.6168 27.4835 23.6845 27.1512 23.5212 26.9044C23.358 26.6577 23.0256 26.5898 22.7789 26.7531L23.3699 27.6467ZM9.25747 14.8461L8.84379 14.5057L8.12282 15.3818H9.25747V14.8461ZM20.6995 14.8461L21.1107 15.1895L21.8448 14.3104H20.6995V14.8461ZM11.1573 13.3805C11.3454 13.1521 11.3126 12.8145 11.0841 12.6265C10.8556 12.4385 10.518 12.4713 10.3301 12.6997L11.1573 13.3805ZM17.402 19.6306C17.5917 19.4036 17.5613 19.0657 17.3342 18.8761C17.1071 18.6865 16.7693 18.7168 16.5796 18.9439L17.402 19.6306ZM12.4407 10.135C12.2526 10.3634 12.2855 10.701 12.514 10.889C12.7424 11.0771 13.08 11.0443 13.268 10.8157L12.4407 10.135ZM18.7073 16.3961C18.5176 16.6232 18.5479 16.961 18.7751 17.1507C19.0021 17.3403 19.3399 17.3099 19.5296 17.0828L18.7073 16.3961ZM12.5496 15.3818C12.8456 15.3818 13.0854 15.142 13.0854 14.8461C13.0854 14.5503 12.8456 14.3104 12.5496 14.3104V15.3818ZM17.2251 14.3104C16.9292 14.3104 16.6894 14.5503 16.6894 14.8461C16.6894 15.142 16.9292 15.3818 17.2251 15.3818V14.3104ZM24.9654 5.17102C30.4315 10.6371 30.4315 19.4994 24.9654 24.9655L25.723 25.7231C31.6075 19.8386 31.6075 10.2979 25.723 4.41341L24.9654 5.17102ZM5.17099 24.9655C-0.295089 19.4994 -0.295089 10.6371 5.17099 5.17102L4.41337 4.41341C-1.47112 10.2979 -1.47112 19.8386 4.41337 25.7231L5.17099 24.9655ZM4.41337 5.17102L24.9654 25.7231L25.723 24.9655L5.17099 4.41341L4.41337 5.17102ZM7.2584 3.4496C12.7009 -0.217664 20.151 0.356707 24.9654 5.17102L25.723 4.41341C20.5393 -0.770329 12.5193 -1.38725 6.65968 2.56105L7.2584 3.4496ZM22.7789 26.7531C17.3453 30.3471 9.95615 29.7507 5.17099 24.9655L4.41337 25.7231C9.56572 30.8755 17.52 31.5162 23.3699 27.6467L22.7789 26.7531ZM10.3301 12.6997L8.84379 14.5057L9.67115 15.1865L11.1573 13.3805L10.3301 12.6997ZM16.5796 18.9439L11.1991 25.3871L12.0215 26.0738L17.402 19.6306L16.5796 18.9439ZM18.0128 3.36414L12.4407 10.135L13.268 10.8157L18.84 4.04497L18.0128 3.36414ZM20.2883 14.5027L18.7073 16.3961L19.5296 17.0828L21.1107 15.1895L20.2883 14.5027ZM9.25747 15.3818H12.5496V14.3104H9.25747V15.3818ZM17.2251 15.3818H20.6995V14.3104H17.2251V15.3818Z" fill="#E28903"/>
</g>
<defs>
<clipPath id="clip0_1791_1795">
<rect width="30" height="30" fill="white"/>
</clipPath>
</defs>
</svg>
