<svg width="30" height="30" viewBox="0 0 30 30" fill="none" xmlns="http://www.w3.org/2000/svg">
<circle cx="15" cy="15" r="15" fill="#1B3B58"/>
<g clip-path="url(#clip0_1857_1894)">
<path d="M15 9.375C16.2081 9.375 17.1875 8.39562 17.1875 7.1875C17.1875 5.97938 16.2081 5 15 5C13.7919 5 12.8125 5.97938 12.8125 7.1875C12.8125 8.39562 13.7919 9.375 15 9.375Z" fill="#F0F0F0"/>
<path d="M22.0703 9.99971H7.92969C7.64997 9.99971 7.3817 10.1108 7.18391 10.3086C6.98612 10.5064 6.875 10.7747 6.875 11.0544C6.875 11.3341 6.98612 11.6024 7.18391 11.8002C7.3817 11.998 7.64997 12.1091 7.92969 12.1091H11.9094C12.1793 12.1091 12.4953 12.2298 12.6742 12.695C12.8832 13.2353 12.7809 14.2786 12.652 15.0868L12.4832 16.0419C12.4835 16.0444 12.4833 16.0469 12.4824 16.0493C12.4816 16.0516 12.4803 16.0538 12.4785 16.0556L11.127 23.7434C11.0779 24.0225 11.1415 24.3096 11.3036 24.542C11.4658 24.7744 11.7133 24.933 11.9922 24.9833C12.13 25.0077 12.2714 25.0044 12.408 24.9737C12.5446 24.9431 12.6737 24.8855 12.7879 24.8045C12.9021 24.7235 12.999 24.6206 13.0731 24.5019C13.1472 24.3831 13.197 24.2508 13.2195 24.1126L14.1535 18.7688C14.1535 18.7688 14.4531 17.4997 15 17.4997C15.5559 17.4997 15.8492 18.7688 15.8492 18.7688L16.7832 24.1173C16.8058 24.2567 16.8559 24.3902 16.9306 24.51C17.0053 24.6298 17.1031 24.7336 17.2184 24.8152C17.3336 24.8969 17.4639 24.9548 17.6017 24.9855C17.7395 25.0163 17.8821 25.0193 18.0211 24.9944C18.1601 24.9696 18.2927 24.9173 18.4113 24.8406C18.5299 24.7639 18.632 24.6644 18.7118 24.5478C18.7915 24.4313 18.8472 24.3 18.8757 24.1617C18.9042 24.0234 18.9049 23.8808 18.8777 23.7423L17.5258 16.0544C17.5261 16.0519 17.5258 16.0495 17.5251 16.0471C17.5243 16.0447 17.5231 16.0426 17.5215 16.0407L17.3523 15.0856C17.2234 14.2774 17.1211 13.2341 17.3301 12.6938C17.5082 12.2298 17.8344 12.1079 18.0832 12.1079H22.0703C22.35 12.1079 22.6183 11.9968 22.8161 11.799C23.0139 11.6012 23.125 11.3329 23.125 11.0532C23.125 10.7735 23.0139 10.5052 22.8161 10.3074C22.6183 10.1097 22.35 9.99854 22.0703 9.99854V9.99971Z" fill="#F0F0F0"/>
</g>
<defs>
<clipPath id="clip0_1857_1894">
<rect width="20" height="20" fill="white" transform="translate(5 5)"/>
</clipPath>
</defs>
</svg>
