<svg width="31" height="31" viewBox="0 0 31 31" fill="none" xmlns="http://www.w3.org/2000/svg">
<ellipse cx="15.7865" cy="15.2616" rx="15.2135" ry="15.2616" fill="white"/>
<g clip-path="url(#clip0_1358_5306)">
<path d="M15.7867 9.42412C17.0365 9.42412 18.0497 8.40773 18.0497 7.15396C18.0497 5.90018 17.0365 4.88379 15.7867 4.88379C14.5369 4.88379 13.5237 5.90018 13.5237 7.15396C13.5237 8.40773 14.5369 9.42412 15.7867 9.42412Z" fill="#1B3B58"/>
<path d="M23.101 10.0725H8.4722C8.18282 10.0725 7.9053 10.1878 7.70068 10.3931C7.49606 10.5984 7.3811 10.8768 7.3811 11.167C7.3811 11.4573 7.49606 11.7357 7.70068 11.941C7.9053 12.1463 8.18282 12.2616 8.4722 12.2616H12.5893C12.8685 12.2616 13.1954 12.3869 13.3805 12.8697C13.5967 13.4303 13.4908 14.5131 13.3575 15.3519L13.1829 16.343C13.1832 16.3456 13.183 16.3482 13.1821 16.3507C13.1813 16.3531 13.1799 16.3554 13.1781 16.3572L11.7798 24.3356C11.7291 24.6252 11.7948 24.9232 11.9626 25.1644C12.1303 25.4055 12.3865 25.5702 12.6749 25.6223C12.8176 25.6476 12.9638 25.6443 13.1051 25.6124C13.2464 25.5806 13.38 25.5209 13.4981 25.4368C13.6162 25.3528 13.7165 25.246 13.7932 25.1227C13.8698 24.9994 13.9213 24.8621 13.9446 24.7187L14.9109 19.173C14.9109 19.173 15.2208 17.8559 15.7866 17.8559C16.3616 17.8559 16.6651 19.173 16.6651 19.173L17.6313 24.7236C17.6547 24.8682 17.7065 25.0068 17.7838 25.1311C17.8611 25.2555 17.9623 25.3632 18.0815 25.4479C18.2007 25.5326 18.3355 25.5927 18.4781 25.6247C18.6207 25.6566 18.7681 25.6597 18.9119 25.6339C19.0557 25.6081 19.193 25.5538 19.3157 25.4742C19.4383 25.3947 19.544 25.2914 19.6265 25.1704C19.709 25.0495 19.7666 24.9133 19.7961 24.7697C19.8256 24.6262 19.8263 24.4782 19.7982 24.3344L18.3995 16.356C18.3998 16.3535 18.3996 16.3509 18.3988 16.3484C18.3981 16.346 18.3968 16.3437 18.3951 16.3418L18.2201 15.3506C18.0868 14.5119 17.9809 13.4291 18.1971 12.8685C18.3814 12.3869 18.7188 12.2604 18.9762 12.2604H23.101C23.3903 12.2604 23.6679 12.1451 23.8725 11.9398C24.0771 11.7345 24.192 11.4561 24.192 11.1658C24.192 10.8755 24.0771 10.5971 23.8725 10.3919C23.6679 10.1866 23.3903 10.0713 23.101 10.0713V10.0725Z" fill="#1B3B58"/>
</g>
<defs>
<clipPath id="clip0_1358_5306">
<rect width="20.6904" height="20.7558" fill="white" transform="translate(5.44141 4.88379)"/>
</clipPath>
</defs>
</svg>
