<svg width="91" height="64" viewBox="0 0 91 64" fill="none" xmlns="http://www.w3.org/2000/svg">
<path d="M35.4735 1.17439L35.72 0.739364V0.739364L35.4735 1.17439ZM34.3587 1.08767L34.5437 1.5522V1.5522L34.3587 1.08767ZM27.4819 3.82601L27.2969 3.36149V3.36149L27.4819 3.82601ZM26.9018 4.30705L26.4798 4.03878V4.03879L26.9018 4.30705ZM1.19291 44.7441L1.61485 45.0124H1.61485L1.19291 44.7441ZM1.53367 46.4238L1.81672 46.0116H1.81672L1.53367 46.4238ZM7.55164 50.5565L7.26859 50.9687H7.26859L7.55164 50.5565ZM9.24833 50.2374L8.83552 49.9552L9.24833 50.2374ZM25.6121 26.2924L25.1993 26.0103L25.6121 26.2924ZM57.8665 1.15038L58.0983 1.59343L57.8665 1.15038ZM58.9714 1.10533L59.1724 0.647514V0.647513L58.9714 1.10533ZM65.1432 3.81498L65.3442 3.35716V3.35716L65.1432 3.81498ZM65.7026 4.30946L66.132 4.05329V4.05329L65.7026 4.30946ZM89.8254 44.7446L89.396 45.0007V45.0007L89.8254 44.7446ZM89.4558 46.4016L89.177 45.9865L89.4558 46.4016ZM83.2883 50.5429L83.567 50.958L83.2883 50.5429ZM81.5717 50.1698L81.1466 50.433L81.5717 50.1698ZM67.0343 26.6815L67.4595 26.4184L67.0343 26.6815ZM46.399 3.83872C41.6476 3.83872 37.2175 1.58784 35.72 0.739364L35.227 1.60941C36.7605 2.47825 41.3789 4.83872 46.399 4.83872V3.83872ZM34.1738 0.623145L27.2969 3.36149L27.6668 4.29054L34.5437 1.5522L34.1738 0.623145ZM26.4798 4.03879L0.770963 44.4759L1.61485 45.0124L27.3237 4.57531L26.4798 4.03879ZM1.25062 46.836L7.26859 50.9687L7.83468 50.1443L1.81672 46.0116L1.25062 46.836ZM9.66114 50.5195L26.0249 26.5746L25.1993 26.0103L8.83552 49.9552L9.66114 50.5195ZM27.3423 26.9898V61.7695H28.3423V26.9898H27.3423ZM46.399 4.83872C51.4597 4.83872 56.4835 2.43806 58.0983 1.59343L57.6348 0.70733C56.0424 1.54025 51.2022 3.83872 46.399 3.83872V4.83872ZM58.7704 1.56315L64.9422 4.2728L65.3442 3.35716L59.1724 0.647514L58.7704 1.56315ZM65.2732 4.56562L89.396 45.0007L90.2548 44.4884L66.132 4.05329L65.2732 4.56562ZM89.177 45.9865L83.0095 50.1278L83.567 50.958L89.7345 46.8167L89.177 45.9865ZM81.9969 49.9067L67.4595 26.4184L66.6092 26.9447L81.1466 50.433L81.9969 49.9067ZM64.2737 27.3321V61.7695H65.2737V27.3321H64.2737ZM64.2737 61.7695C64.2737 62.1759 63.9471 62.5 63.5509 62.5V63.5C64.5054 63.5 65.2737 62.7222 65.2737 61.7695H64.2737ZM83.0095 50.1278C82.6717 50.3546 82.2134 50.2565 81.9969 49.9067L81.1466 50.433C81.66 51.2625 82.7564 51.5023 83.567 50.958L83.0095 50.1278ZM89.396 45.0007C89.5964 45.3366 89.4983 45.7708 89.177 45.9865L89.7345 46.8167C90.499 46.3034 90.7263 45.2787 90.2548 44.4884L89.396 45.0007ZM64.9422 4.2728C65.0796 4.33311 65.1954 4.43527 65.2732 4.56563L66.132 4.05329C65.948 3.74496 65.6728 3.50144 65.3442 3.35716L64.9422 4.2728ZM58.0983 1.59343C58.3142 1.48046 58.5604 1.47097 58.7704 1.56315L59.1724 0.647513C58.6714 0.427582 58.107 0.460315 57.6348 0.70733L58.0983 1.59343ZM27.3423 61.7695C27.3423 62.7222 28.1106 63.5 29.0651 63.5V62.5C28.6689 62.5 28.3423 62.1759 28.3423 61.7695H27.3423ZM26.0249 26.5746C26.4237 25.9911 27.3423 26.2657 27.3423 26.9898H28.3423C28.3423 25.2971 26.1613 24.6026 25.1993 26.0103L26.0249 26.5746ZM7.26859 50.9687C8.05386 51.5079 9.12401 51.3055 9.66114 50.5195L8.83552 49.9552C8.60927 50.2863 8.16216 50.3692 7.83468 50.1443L7.26859 50.9687ZM0.770963 44.4759C0.270742 45.2627 0.481588 46.3078 1.25062 46.836L1.81672 46.0116C1.49341 45.7896 1.40235 45.3466 1.61485 45.0124L0.770963 44.4759ZM27.2969 3.36149C26.9601 3.4956 26.6744 3.73277 26.4798 4.03878L27.3237 4.57531C27.4059 4.446 27.5261 4.34657 27.6668 4.29054L27.2969 3.36149ZM67.4595 26.4184C66.5405 24.9336 64.2737 25.5989 64.2737 27.3321H65.2737C65.2737 26.5907 66.2281 26.329 66.6092 26.9447L67.4595 26.4184ZM35.72 0.739364C35.2562 0.476574 34.6875 0.418586 34.1738 0.623145L34.5437 1.5522C34.7573 1.46715 35.0093 1.48604 35.227 1.60942L35.72 0.739364ZM29.0651 63.5H63.5509V62.5H29.0651V63.5Z" fill="#696969"/>
</svg>
