<svg width="42" height="73" viewBox="0 0 42 73" fill="none" xmlns="http://www.w3.org/2000/svg">
<path d="M8.71931 1H6.20476C5.59763 1 5.13053 1.53663 5.22015 2.13711C6.80907 12.7834 9.64823 23.1858 1.58855 31.7285C1.22101 32.1181 1 32.6314 1 33.1669V70C1 71.1046 1.89543 72 3 72H21H39C40.1046 72 41 71.1046 41 70V33.2239C41 32.655 40.7511 32.1145 40.3445 31.7165C32.1136 23.6589 35.2214 12.446 36.7788 2.13658C36.8695 1.53627 36.4024 1 35.7952 1H33.2807M8.71931 1C11.3226 25.5273 30.6774 26.1727 33.2807 1M8.71931 1C15.1935 12.6182 26.8065 12.6182 33.2807 1" stroke="#696969" stroke-linecap="round" stroke-linejoin="round"/>
</svg>
