<svg width="40" height="81" viewBox="0 0 40 81" fill="none" xmlns="http://www.w3.org/2000/svg">
<path d="M19.9272 1L19.9361 0.500079C19.9302 0.499974 19.9242 0.499974 19.9183 0.500079L19.9272 1ZM6.52254 62.0271L6.07793 61.7984L6.52254 62.0271ZM33.4775 62.0271L33.0329 62.2559L33.4775 62.0271ZM33.4579 44.2243L33.8926 44.4713L33.4579 44.2243ZM33.3028 44.569L33.7775 44.7261L33.3028 44.569ZM18.8588 79.2942L19.1397 78.8806L18.8588 79.2942ZM20.9961 79.295L21.2765 79.7089L20.9961 79.295ZM6.54206 44.2243L6.97676 43.9772L6.54206 44.2243ZM6.69716 44.569L7.17184 44.4119L6.69716 44.569ZM19.9183 0.500079C16.688 0.557414 11.8405 1.54001 7.78877 4.72383C3.714 7.92575 0.5 13.3111 0.5 22.0501H1.5C1.5 13.5889 4.59507 8.50522 8.40663 5.51012C12.2412 2.49693 16.8573 1.55457 19.9361 1.49992L19.9183 0.500079ZM0.5 22.0501C0.5 31.3491 2.93343 38.8869 6.10737 44.4713L6.97676 43.9772C3.88582 38.5388 1.5 31.1707 1.5 22.0501H0.5ZM6.22249 44.7261C6.80959 46.4998 7.47087 49.4325 7.6317 52.6022C7.79291 55.7792 7.4482 59.1352 6.07793 61.7984L6.96714 62.2559C8.45277 59.3685 8.79571 55.8091 8.63042 52.5515C8.46476 49.2867 7.7854 46.2655 7.17184 44.4119L6.22249 44.7261ZM6.07793 61.7984C5.31137 63.2882 5.40512 64.9373 6.00871 66.579C6.61021 68.2149 7.73196 69.8878 9.09908 71.4892C11.8353 74.6943 15.6416 77.7133 18.5778 79.7078L19.1397 78.8806C16.2425 76.9126 12.5157 73.9512 9.85962 70.8399C8.53058 69.2831 7.49141 67.7138 6.94728 66.2339C6.40523 64.7596 6.36865 63.4191 6.96714 62.2559L6.07793 61.7984ZM19.9183 1.49992C22.9975 1.55457 27.6509 2.49718 31.5223 5.5115C35.3702 8.50749 38.5 13.5911 38.5 22.0501H39.5C39.5 13.3089 36.2479 7.92348 32.1367 4.72246C28.049 1.53976 23.166 0.557407 19.9361 0.500079L19.9183 1.49992ZM38.5 22.0501C38.5 31.1707 36.1142 38.5388 33.0232 43.9772L33.8926 44.4713C37.0666 38.8869 39.5 31.3491 39.5 22.0501H38.5ZM32.8282 44.4119C32.2146 46.2655 31.5352 49.2867 31.3696 52.5515C31.2043 55.8091 31.5472 59.3685 33.0329 62.2559L33.9221 61.7984C32.5518 59.1352 32.2071 55.7792 32.3683 52.6022C32.5291 49.4325 33.1904 46.4998 33.7775 44.7261L32.8282 44.4119ZM33.0329 62.2559C33.6304 63.4173 33.5873 64.7563 33.0335 66.2309C32.4775 67.7111 31.422 69.2808 30.0756 70.8381C27.385 73.9503 23.6215 76.9124 20.7156 78.881L21.2765 79.7089C24.2193 77.7153 28.0616 74.6967 30.8321 71.4921C32.2163 69.8911 33.3552 68.2184 33.9696 66.5825C34.5862 64.941 34.6897 63.2903 33.9221 61.7984L33.0329 62.2559ZM33.0232 43.9772C32.9462 44.1127 32.88 44.2551 32.8282 44.4119L33.7775 44.7261C33.8059 44.6403 33.8434 44.5579 33.8926 44.4713L33.0232 43.9772ZM18.5778 79.7078C19.3937 80.2621 20.4604 80.2618 21.2765 79.7089L20.7156 78.881C20.2381 79.2045 19.6163 79.2044 19.1397 78.8806L18.5778 79.7078ZM6.10737 44.4713C6.15659 44.5579 6.19409 44.6403 6.22249 44.7261L7.17184 44.4119C7.11997 44.2551 7.05377 44.1127 6.97676 43.9772L6.10737 44.4713Z" fill="#696969"/>
<path d="M9.22683 22.8135L9.32519 22.3233L9.22683 22.8135ZM30.9691 22.8136L30.8708 22.3233L30.9691 22.8136ZM30.9468 14.7537L30.8883 15.2502L30.9468 14.7537ZM30.9941 14.7589L30.9414 15.2561L30.9941 14.7589ZM20.0443 24.1772L20.0041 24.6755L20.0443 24.1772ZM20.3476 24.1771L20.3879 24.6755L20.3476 24.1771ZM9.23449 14.7553L9.29826 15.2512L9.23449 14.7553ZM9.21863 14.7574L9.15508 14.2614L9.21863 14.7574ZM20 13.8633C12.3801 13.8633 9.3665 14.2342 9.17073 14.2594L9.29826 15.2512C9.44112 15.2329 12.4105 14.8633 20 14.8633V13.8633ZM9.15508 14.2614C7.28439 14.5011 5.98456 16.1441 5.98456 18.4901H6.98456C6.98456 16.5203 8.02705 15.4141 9.28219 15.2533L9.15508 14.2614ZM5.98456 18.4901C5.98456 19.6894 6.41932 20.8089 7.00613 21.6587C7.57928 22.4887 8.36169 23.1499 9.12847 23.3038L9.32519 22.3233C8.92363 22.2427 8.3349 21.8231 7.82901 21.0905C7.33677 20.3776 6.98456 19.4527 6.98456 18.4901H5.98456ZM9.12847 23.3038C10.1181 23.5023 16.555 24.3976 20.0041 24.6755L20.0844 23.6788C16.6615 23.403 10.2655 22.512 9.32519 22.3233L9.12847 23.3038ZM20 14.8633C27.4397 14.8633 30.6187 15.2184 30.8883 15.2502L31.0053 14.2571C30.6894 14.2199 27.4704 13.8633 20 13.8633V14.8633ZM30.9414 15.2561C31.7907 15.3462 32.3268 15.6788 32.6678 16.1769C33.024 16.6973 33.2114 17.4628 33.2114 18.4902H34.2114C34.2114 17.365 34.0103 16.3677 33.493 15.6121C32.9604 14.8341 32.138 14.3774 31.0468 14.2617L30.9414 15.2561ZM33.2114 18.4902C33.2114 19.4527 32.8592 20.3777 32.3669 21.0905C31.861 21.8232 31.2723 22.2428 30.8708 22.3233L31.0674 23.3038C31.8342 23.15 32.6166 22.4888 33.1898 21.6587C33.7766 20.8089 34.2114 19.6894 34.2114 18.4902H33.2114ZM30.8708 22.3233C29.9288 22.5123 23.7227 23.4031 20.3074 23.6788L20.3879 24.6755C23.8336 24.3974 30.0795 23.502 31.0674 23.3038L30.8708 22.3233ZM30.8883 15.2502C30.9072 15.2525 30.9238 15.2543 30.9414 15.2561L31.0468 14.2617C31.0316 14.2601 31.0192 14.2587 31.0053 14.2571L30.8883 15.2502ZM20.0041 24.6755C20.1333 24.6859 20.2587 24.6859 20.3879 24.6755L20.3074 23.6788C20.2318 23.6849 20.1601 23.6849 20.0844 23.6788L20.0041 24.6755ZM9.17073 14.2594C9.1652 14.2601 9.16038 14.2607 9.15508 14.2614L9.28219 15.2533C9.28776 15.2526 9.29291 15.2519 9.29826 15.2512L9.17073 14.2594Z" fill="#696969"/>
</svg>
