<svg width="66" height="66" viewBox="0 0 66 66" fill="none" xmlns="http://www.w3.org/2000/svg">
<path d="M58.0134 26.6808L58.3677 27.0336L58.0134 26.6808ZM55.1792 26.6808L54.8249 27.0336L55.1792 26.6808ZM64.4957 17.2514L64.8377 16.8866L64.4957 17.2514ZM64.5452 20.122L64.1909 19.7692L64.5452 20.122ZM50.0123 3.83485L49.8118 4.29289L50.0123 3.83485ZM50.578 4.20773L50.2361 4.57256L50.578 4.20773ZM42.58 1.5954L42.3303 1.16221L42.58 1.5954ZM44.5698 1.45266L44.3693 1.9107L44.5698 1.45266ZM1.50426 17.2514L1.16235 16.8866L1.50426 17.2514ZM1.45477 20.122L1.10049 20.4748L1.45477 20.122ZM15.3959 4.23222L15.054 3.8674L15.3959 4.23222ZM33.0871 3.8224C29.1072 3.8224 25.8915 2.173 24.3799 1.22927L23.8503 2.07752C25.4388 3.06927 28.8424 4.8224 33.0871 4.8224V3.8224ZM21.9003 0.962495L15.8411 3.36792L16.2101 4.29735L22.2693 1.89194L21.9003 0.962495ZM15.054 3.8674L1.16235 16.8866L1.84617 17.6162L15.7378 4.59704L15.054 3.8674ZM1.10049 20.4748L7.63228 27.0336L8.34085 26.328L1.80906 19.7692L1.10049 20.4748ZM11.1751 27.0336L12.2617 25.9426L11.5531 25.2369L10.4665 26.328L11.1751 27.0336ZM14.8245 27.001V63H15.8245V27.001H14.8245ZM17.3245 65.5H32.9129V64.5H17.3245V65.5ZM33.0871 4.8224C37.4116 4.8224 41.1415 3.0017 42.8297 2.02859L42.3303 1.16221C40.7015 2.10105 37.1539 3.8224 33.0871 3.8224V4.8224ZM44.3693 1.9107L49.8118 4.29289L50.2128 3.3768L44.7703 0.994612L44.3693 1.9107ZM50.2361 4.57256L64.1538 17.6162L64.8377 16.8866L50.9199 3.84291L50.2361 4.57256ZM64.1909 19.7692L57.6592 26.328L58.3677 27.0336L64.8995 20.4748L64.1909 19.7692ZM55.5335 26.328L54.4469 25.2369L53.7383 25.9426L54.8249 27.0336L55.5335 26.328ZM50.1755 27.001V63H51.1755V27.001H50.1755ZM48.6755 64.5H32.9129V65.5H48.6755V64.5ZM50.1755 63C50.1755 63.8284 49.5039 64.5 48.6755 64.5V65.5C50.0562 65.5 51.1755 64.3807 51.1755 63H50.1755ZM57.6592 26.328C57.0729 26.9167 56.1197 26.9167 55.5335 26.328L54.8249 27.0336C55.802 28.0148 57.3906 28.0148 58.3677 27.0336L57.6592 26.328ZM64.1538 17.6162C64.7713 18.1949 64.7881 19.1695 64.1909 19.7692L64.8995 20.4748C65.8948 19.4754 65.8668 17.8511 64.8377 16.8866L64.1538 17.6162ZM49.8118 4.29289C49.9681 4.36131 50.1116 4.45588 50.2361 4.57256L50.9199 3.84291C50.7124 3.64846 50.4733 3.49083 50.2128 3.3768L49.8118 4.29289ZM42.8297 2.02859C43.315 1.74886 43.889 1.70045 44.3693 1.9107L44.7703 0.994612C43.9669 0.642981 43.0591 0.742165 42.3303 1.16221L42.8297 2.02859ZM14.8245 63C14.8245 64.3807 15.9438 65.5 17.3245 65.5V64.5C16.4961 64.5 15.8245 63.8284 15.8245 63H14.8245ZM12.2617 25.9426C13.2057 24.9946 14.8245 25.6632 14.8245 27.001H15.8245C15.8245 24.7713 13.1265 23.657 11.5531 25.2369L12.2617 25.9426ZM7.63228 27.0336C8.60942 28.0148 10.198 28.0148 11.1751 27.0336L10.4665 26.328C9.88026 26.9167 8.92713 26.9167 8.34085 26.328L7.63228 27.0336ZM1.16235 16.8866C0.133232 17.8511 0.105229 19.4754 1.10049 20.4748L1.80906 19.7692C1.2119 19.1695 1.2287 18.1949 1.84617 17.6162L1.16235 16.8866ZM15.8411 3.36792C15.5497 3.48359 15.2827 3.65302 15.054 3.8674L15.7378 4.59704C15.875 4.46842 16.0353 4.36676 16.2101 4.29735L15.8411 3.36792ZM54.4469 25.2369C52.8735 23.657 50.1755 24.7713 50.1755 27.001H51.1755C51.1755 25.6632 52.7943 24.9946 53.7383 25.9426L54.4469 25.2369ZM24.3799 1.22927C23.6574 0.77816 22.7341 0.631489 21.9003 0.962495L22.2693 1.89194C22.7668 1.69441 23.3578 1.77003 23.8503 2.07752L24.3799 1.22927Z" fill="#696969"/>
</svg>
