<svg width="37" height="75" viewBox="0 0 37 75" fill="none" xmlns="http://www.w3.org/2000/svg">
<path d="M4.46521 2.0542L4.96458 2.07929L4.96459 2.0791L4.46521 2.0542ZM1.0014 70.994L0.502026 70.9689L0.502016 70.9691L1.0014 70.994ZM5.63468 1.00234L5.60227 1.50129L5.63468 1.00234ZM19.3198 1.56929L19.3141 2.06926L19.3147 2.06927L19.3198 1.56929ZM34.0076 2.10383L33.5078 2.11816L33.5078 2.11827L34.0076 2.10383ZM35.9995 71.0333L36.4993 71.0189L36.4993 71.0188L35.9995 71.0333ZM32.8146 1.02587L32.8547 1.52426L32.8146 1.02587ZM35.1768 72.1353L35.0514 71.6513L35.1768 72.1353ZM28.2328 73.9343L28.3582 74.4183H28.3582L28.2328 73.9343ZM26.8749 73.0184L26.3784 73.0785L26.3797 73.0876L26.8749 73.0184ZM20.3545 19.2023L20.851 19.1422L20.8497 19.1331L20.3545 19.2023ZM18.1863 19.1876L17.692 19.1117L17.6907 19.1217L18.1863 19.1876ZM11.0197 73.0638L11.514 73.1396L11.5154 73.1297L11.0197 73.0638ZM9.68755 73.9708L9.573 74.4575L9.68755 73.9708ZM1.84679 72.1254L1.96134 71.6387H1.96133L1.84679 72.1254ZM18.443 18.6144L18.8197 18.9432L18.443 18.6144ZM16.1546 1.50442L16.1689 1.00462L16.1546 1.50442ZM20.0958 18.6144L19.7194 18.9436L20.0958 18.6144ZM3.96584 2.02911L0.502026 70.9689L1.50077 71.0191L4.96458 2.07929L3.96584 2.02911ZM33.5078 2.11827L35.4997 71.0477L36.4993 71.0188L34.5074 2.08939L33.5078 2.11827ZM35.0514 71.6513L28.1074 73.4502L28.3582 74.4183L35.3022 72.6193L35.0514 71.6513ZM27.3712 72.9582L20.8509 19.1422L19.8582 19.2625L26.3785 73.0785L27.3712 72.9582ZM17.6907 19.1217L10.5241 72.9978L11.5154 73.1297L18.6819 19.2535L17.6907 19.1217ZM9.80209 73.4841L1.96134 71.6387L1.73224 72.6121L9.573 74.4575L9.80209 73.4841ZM10.5255 72.9879C10.4716 73.3392 10.1356 73.5625 9.80209 73.4841L9.573 74.4575C10.4821 74.6714 11.3727 74.0596 11.5139 73.1396L10.5255 72.9879ZM35.4997 71.0476C35.5079 71.3331 35.3191 71.5819 35.0514 71.6513L35.3022 72.6193C36.0264 72.4317 36.5207 71.7654 36.4993 71.0189L35.4997 71.0476ZM34.5074 2.0895C34.4811 1.16949 33.694 0.45346 32.7745 0.52748L32.8547 1.52426C33.1963 1.49676 33.4977 1.76327 33.5078 2.11816L34.5074 2.0895ZM0.502016 70.9691C0.463543 71.741 0.978523 72.4347 1.73225 72.6121L1.96133 71.6387C1.68292 71.5732 1.48606 71.3142 1.50078 71.0189L0.502016 70.9691ZM28.1074 73.4502C27.7677 73.5382 27.4205 73.3098 27.37 72.9491L26.3797 73.0876C26.5117 74.0318 27.4319 74.6582 28.3582 74.4183L28.1074 73.4502ZM4.96459 2.0791C4.98175 1.73493 5.27204 1.47984 5.60227 1.50129L5.66709 0.503392C4.77122 0.445201 4.01034 1.13635 3.96583 2.02931L4.96459 2.0791ZM18.0663 18.2857C17.8733 18.5068 17.742 18.7866 17.6921 19.1118L18.6805 19.2635C18.7029 19.1173 18.757 19.0151 18.8197 18.9432L18.0663 18.2857ZM5.60227 1.50129C7.53971 1.62714 11.7441 1.8788 16.1404 2.00421L16.1689 1.00462C11.7899 0.879701 7.59908 0.628885 5.66709 0.503392L5.60227 1.50129ZM16.1404 2.00421C17.1964 2.03434 18.2639 2.05719 19.3141 2.06926L19.3256 1.06933C18.282 1.05733 17.2202 1.03461 16.1689 1.00462L16.1404 2.00421ZM18.924 18.478C18.1704 15.8201 16.6546 8.67863 16.6546 1.50442H15.6546C15.6546 8.793 17.19 16.0283 17.962 18.7508L18.924 18.478ZM20.8497 19.1331C20.803 18.7988 20.6699 18.5114 20.4721 18.2852L19.7194 18.9436C19.7836 19.017 19.8384 19.1216 19.8593 19.2716L20.8497 19.1331ZM20.4721 18.2852C19.8513 17.5755 18.689 17.572 18.0663 18.2857L18.8197 18.9432C19.0426 18.6878 19.4956 18.6877 19.7194 18.9436L20.4721 18.2852ZM32.7745 0.52748C30.7934 0.686963 26.5347 0.990768 22.1004 1.06002L22.1161 2.0599C26.5812 1.99016 30.864 1.68451 32.8547 1.52426L32.7745 0.52748ZM22.1004 1.06002C21.176 1.07446 20.2445 1.07869 19.3249 1.06932L19.3147 2.06927C20.2442 2.07874 21.1843 2.07445 22.1161 2.0599L22.1004 1.06002ZM20.5492 18.8253C20.7422 18.41 20.9613 17.6483 21.1816 16.6465C21.405 15.6305 21.6378 14.3293 21.8488 12.8099C22.271 9.77086 22.6082 5.84484 22.6082 1.55996H21.6082C21.6082 5.79472 21.2747 9.67463 20.8583 12.6723C20.6501 14.1712 20.4217 15.446 20.2049 16.4317C19.985 17.4317 19.7847 18.0975 19.6424 18.4036L20.5492 18.8253Z" fill="#696969"/>
</svg>
