<svg width="68" height="58" viewBox="0 0 68 58" fill="none" xmlns="http://www.w3.org/2000/svg">
<path d="M32.4769 42.8386L32.304 53.4161C32.2383 54.2773 31.6161 55.0023 30.7621 55.1994C20.4744 57.5737 12.4436 57.6134 2.52512 55.2385C1.62449 55.0229 0.996678 54.216 1.00001 53.3035C1.07993 31.4416 1.6695 25.5892 3.55448 2.84885C3.7105 1.72787 4.57932 0.930695 5.55187 1.00657C12.1358 1.52021 17.6256 1.88298 22.8391 2.09633C26.6478 2.2522 30.309 2.32832 34.1414 2.32526C37.9713 2.32221 41.6313 2.24009 45.4438 2.07948C50.5782 1.86318 55.9894 1.50452 62.465 1.00488C63.437 0.929886 64.3048 1.7269 64.4608 2.84719C66.1703 25.3822 66.708 31.2326 66.9998 53.2693C67.0121 54.1976 66.3705 55.02 65.4522 55.2311C55.2204 57.5833 47.4163 57.6029 37.4999 55.2103C36.6562 55.0067 36.0453 54.2862 35.9802 53.4334L35.806 42.8386M32.4769 42.8386C32.5423 41.9812 33.2681 41.3184 34.1414 41.3184C35.0148 41.3184 35.7406 41.9812 35.806 42.8386M32.4769 42.8386C25.7667 42.8386 23.1304 21.9828 22.8622 5M35.806 42.8386C42.2707 42.8386 45.1242 21.9944 45.4183 5" stroke="#696969" stroke-linecap="round" stroke-linejoin="round"/>
</svg>
