<svg width="31" height="29" viewBox="0 0 31 29" fill="none" xmlns="http://www.w3.org/2000/svg">
<path d="M1.76264 17.3753L1.27607 17.4904C1.32944 17.716 1.53084 17.8753 1.76264 17.8753V17.3753ZM28.1618 17.3753L28.6483 17.4904C28.6835 17.3417 28.6487 17.185 28.5539 17.0651C28.4591 16.9452 28.3146 16.8753 28.1618 16.8753V17.3753ZM27.5528 19.2948L27.0889 19.1084L27.5528 19.2948ZM2.83555 19.1084C2.73259 18.8522 2.44141 18.7279 2.18518 18.8309C1.92895 18.9338 1.8047 19.225 1.90765 19.4812L2.83555 19.1084ZM3.28575 7.33456L2.85563 7.07962L3.28575 7.33456ZM26.2085 7.5895C26.3493 7.82705 26.656 7.90548 26.8936 7.76468C27.1311 7.62389 27.2096 7.31717 27.0688 7.07962L26.2085 7.5895ZM6.00097 15.3021L5.77736 15.7493C5.91812 15.8197 6.08382 15.8197 6.22458 15.7493L6.00097 15.3021ZM11.9749 15.3021L11.7513 15.7493C11.8921 15.8197 12.0578 15.8197 12.1986 15.7493L11.9749 15.3021ZM17.9489 15.3021L17.7253 15.7493C17.8661 15.8197 18.0318 15.8197 18.1726 15.7493L17.9489 15.3021ZM23.9229 15.3021L23.6993 15.7493C23.8401 15.8197 24.0058 15.8197 24.1465 15.7493L23.9229 15.3021ZM29.6733 15.7493C29.9203 15.8728 30.2206 15.7727 30.3441 15.5257C30.4676 15.2787 30.3675 14.9784 30.1205 14.8549L29.6733 15.7493ZM1.40234 14.5642L1.13446 14.142C0.986399 14.236 0.898374 14.4006 0.902481 14.5759L1.40234 14.5642ZM2.29963 10.76C2.22922 10.493 1.95569 10.3336 1.68867 10.404C1.42166 10.4744 1.26227 10.7479 1.33267 11.015L2.29963 10.76ZM2.4544 8.98465L1.99353 8.79076C1.91769 8.97102 1.95391 9.17895 2.08623 9.32296C2.21856 9.46696 2.42269 9.5206 2.60871 9.46024L2.4544 8.98465ZM27.47 8.98473L27.6245 8.50918L27.47 8.98473ZM28.108 10.8864L27.6245 10.759L28.108 10.8864ZM1.76264 17.8753H28.1618V16.8753H1.76264V17.8753ZM27.6752 17.2602C27.5249 17.8954 27.3282 18.5128 27.0889 19.1084L28.0167 19.4812C28.2745 18.8397 28.4864 18.1747 28.6483 17.4904L27.6752 17.2602ZM27.0889 19.1084C25.1582 23.9131 20.4556 27.3041 14.9622 27.3041V28.3041C20.8778 28.3041 25.9391 24.6519 28.0167 19.4812L27.0889 19.1084ZM14.9622 27.3041C9.4688 27.3041 4.76618 23.9131 2.83555 19.1084L1.90765 19.4812C3.98531 24.6519 9.04665 28.3041 14.9622 28.3041V27.3041ZM3.71588 7.5895C5.99192 3.74943 10.1769 1.17676 14.9622 1.17676V0.176758C9.80932 0.176758 5.3043 2.94831 2.85563 7.07962L3.71588 7.5895ZM14.9622 1.17676C19.7475 1.17676 23.9325 3.74943 26.2085 7.5895L27.0688 7.07962C24.6201 2.94831 20.1151 0.176758 14.9622 0.176758V1.17676ZM6.22458 15.7493C6.63206 15.5456 8.30302 14.833 9.38004 13.4707L8.59557 12.8505C7.68686 13.9999 6.2564 14.6154 5.77736 14.8549L6.22458 15.7493ZM9.38004 13.4707C10.1142 12.542 10.6859 11.3889 10.7793 10.4162C10.8263 9.92721 10.758 9.41237 10.4417 9.01154C10.1134 8.59551 9.60133 8.40579 8.98796 8.40579V9.40579C9.39878 9.40579 9.57403 9.52631 9.65669 9.63105C9.75136 9.75101 9.81781 9.96746 9.78389 10.3206C9.71553 11.0321 9.26291 12.0064 8.59557 12.8505L9.38004 13.4707ZM12.1986 14.8549C11.7195 14.6154 10.2887 13.9999 9.38004 12.8505L8.59557 13.4707C9.6726 14.833 11.3439 15.5456 11.7513 15.7493L12.1986 14.8549ZM9.38004 12.8505C8.71271 12.0064 8.26017 11.0321 8.19188 10.3206C8.15799 9.96752 8.22446 9.75105 8.31916 9.63108C8.40186 9.52631 8.57714 9.40579 8.98796 9.40579V8.40579C8.37458 8.40579 7.86257 8.59551 7.53421 9.01152C7.21785 9.41232 7.14952 9.92716 7.19646 10.4162C7.28981 11.3889 7.86138 12.542 8.59557 13.4707L9.38004 12.8505ZM6.22458 14.8549C5.74552 14.6154 4.31497 13.9999 3.40625 12.8505L2.62179 13.4707C3.69881 14.833 5.3699 15.5456 5.77736 15.7493L6.22458 14.8549ZM12.1986 15.7493C12.606 15.5456 14.277 14.833 15.354 13.4707L14.5695 12.8505C13.6608 13.9999 12.2304 14.6154 11.7513 14.8549L12.1986 15.7493ZM15.354 13.4707C16.0882 12.542 16.6598 11.3889 16.7533 10.4162C16.8002 9.92721 16.732 9.41236 16.4156 9.01154C16.0873 8.59551 15.5753 8.40578 14.9619 8.40578V9.40578C15.3727 9.40578 15.548 9.52631 15.6307 9.63105C15.7253 9.75101 15.7918 9.96746 15.7578 10.3206C15.6895 11.0321 15.2369 12.0064 14.5695 12.8505L15.354 13.4707ZM18.1726 14.8549C17.6934 14.6153 16.2627 13.9999 15.354 12.8505L14.5695 13.4707C15.6466 14.833 17.3179 15.5456 17.7253 15.7493L18.1726 14.8549ZM15.354 12.8505C14.6867 12.0064 14.2341 11.0321 14.1658 10.3206C14.132 9.96752 14.1984 9.75105 14.2931 9.63108C14.3758 9.5263 14.5511 9.40578 14.9619 9.40578V8.40578C14.3485 8.40578 13.8365 8.59551 13.5082 9.01151C13.1918 9.41232 13.1235 9.92715 13.1704 10.4162C13.2638 11.3889 13.8353 12.542 14.5695 13.4707L15.354 12.8505ZM3.40625 13.4707C4.14043 12.542 4.71208 11.3889 4.80552 10.4162C4.8525 9.92722 4.78423 9.41237 4.4679 9.01155C4.13957 8.59552 3.62755 8.40579 3.01418 8.40579V9.40579C3.425 9.40579 3.60025 9.52631 3.68291 9.63106C3.77758 9.75101 3.84403 9.96746 3.81011 10.3206C3.74175 11.0321 3.28913 12.0064 2.62179 12.8505L3.40625 13.4707ZM18.1726 15.7493C18.58 15.5456 20.251 14.833 21.328 13.4707L20.5435 12.8505C19.6348 13.9999 18.2044 14.6154 17.7253 14.8549L18.1726 15.7493ZM21.328 13.4707C22.0622 12.542 22.6338 11.3889 22.7273 10.4162C22.7742 9.9272 22.706 9.41235 22.3896 9.01153C22.0613 8.5955 21.5493 8.40577 20.9359 8.40577V9.40577C21.3467 9.40577 21.522 9.52629 21.6046 9.63104C21.6993 9.75099 21.7658 9.96745 21.7318 10.3206C21.6635 11.0321 21.2109 12.0064 20.5435 12.8505L21.328 13.4707ZM24.1465 14.8549C23.6674 14.6153 22.2367 13.9999 21.328 12.8505L20.5435 13.4707C21.6206 14.833 23.2919 15.5456 23.6993 15.7493L24.1465 14.8549ZM21.328 12.8505C20.6607 12.0064 20.2081 11.0321 20.1398 10.3206C20.1059 9.9675 20.1724 9.75104 20.2671 9.63107C20.3498 9.52629 20.5251 9.40577 20.9359 9.40577V8.40577C20.3225 8.40577 19.8105 8.5955 19.4822 9.0115C19.1658 9.4123 19.0975 9.92714 19.1444 10.4161C19.2378 11.3888 19.8093 12.542 20.5435 13.4707L21.328 12.8505ZM24.1465 15.7493C24.554 15.5456 26.225 14.833 27.302 13.4706L26.5175 12.8505C25.6088 13.9999 24.1784 14.6154 23.6993 14.8549L24.1465 15.7493ZM30.1205 14.8549C29.6414 14.6153 28.2107 13.9999 27.302 12.8505L26.5175 13.4706C27.5945 14.833 29.2659 15.5456 29.6733 15.7493L30.1205 14.8549ZM27.302 12.8505C26.6346 12.0063 26.1821 11.0321 26.1138 10.3206C26.0799 9.96748 26.1464 9.75102 26.2411 9.63104C26.3238 9.52627 26.4991 9.40575 26.9099 9.40575V8.40575C26.2965 8.40575 25.7845 8.59548 25.4562 9.01148C25.1398 9.41228 25.0715 9.92712 25.1184 10.4161C25.2117 11.3888 25.7833 12.5419 26.5175 13.4706L27.302 12.8505ZM1.67023 14.9864C2.24196 14.6236 2.88829 14.1258 3.40625 13.4707L2.62179 12.8505C2.19782 13.3868 1.65121 13.8141 1.13446 14.142L1.67023 14.9864ZM2.2492 17.2602C2.04297 16.3885 1.924 15.4828 1.90221 14.5525L0.902481 14.5759C0.925918 15.5764 1.0539 16.5514 1.27607 17.4904L2.2492 17.2602ZM3.40625 12.8505C2.87559 12.1793 2.47191 11.4134 2.29963 10.76L1.33267 11.015C1.54758 11.83 2.02635 12.7175 2.62179 13.4707L3.40625 12.8505ZM2.91528 9.17854C3.14658 8.62875 3.41445 8.09805 3.71588 7.5895L2.85563 7.07962C2.53112 7.62713 2.24265 8.1986 1.99353 8.79076L2.91528 9.17854ZM2.60871 9.46024C2.70783 9.42808 2.84014 9.40579 3.01418 9.40579V8.40579C2.75676 8.40579 2.51739 8.43855 2.30009 8.50906L2.60871 9.46024ZM27.6245 8.50918C27.4071 8.43856 27.1675 8.40575 26.9099 8.40575V9.40575C27.0841 9.40575 27.2165 9.42808 27.3156 9.46027L27.6245 8.50918ZM27.302 13.4706C27.8977 12.7171 28.3767 11.8292 28.5915 11.0138L27.6245 10.759C27.4523 11.4126 27.0484 12.1789 26.5175 12.8505L27.302 13.4706ZM28.5915 11.0138C28.722 10.5186 28.7675 10.0028 28.6356 9.54865C28.4951 9.06473 28.1597 8.68302 27.6245 8.50918L27.3156 9.46027C27.5202 9.52673 27.6225 9.64573 27.6753 9.82751C27.7367 10.0391 27.7312 10.3539 27.6245 10.759L28.5915 11.0138Z" fill="white"/>
</svg>
