<svg width="31" height="31" viewBox="0 0 31 31" fill="none" xmlns="http://www.w3.org/2000/svg">
<ellipse cx="15.2135" cy="15.2616" rx="15.2135" ry="15.2616" fill="white"/>
<g clip-path="url(#clip0_1358_5296)">
<path fill-rule="evenodd" clip-rule="evenodd" d="M23.6225 10.3394C23.7692 9.87312 23.6225 9.53419 22.9736 9.53419H20.8158C20.2715 9.53419 20.0201 9.83096 19.8734 10.1484C19.8734 10.1484 18.7634 12.8599 17.2134 14.6178C16.7107 15.1262 16.4804 15.2957 16.208 15.2957C16.0613 15.2957 15.8726 15.1262 15.8726 14.6604V10.3175C15.8726 9.7669 15.7053 9.5127 15.2443 9.5127H11.8507C11.5154 9.5127 11.306 9.7669 11.306 10.0211C11.306 10.5506 12.0811 10.6779 12.1647 12.1605V15.3821C12.1647 16.081 12.0411 16.2087 11.7667 16.2087C11.0337 16.2087 9.25329 13.4762 8.1853 10.3625C7.97764 9.74582 7.76668 9.5127 7.22197 9.5127H5.04355C4.4152 9.5127 4.31055 9.80906 4.31055 10.1269C4.31055 10.699 5.04355 13.5795 7.72465 17.3921C9.50505 19.9961 12.0395 21.3957 14.3225 21.3957C15.7053 21.3957 15.8726 21.0778 15.8726 20.5483V18.5784C15.8726 17.9431 15.9983 17.8373 16.4383 17.8373C16.7523 17.8373 17.318 18.0063 18.5957 19.2563C20.0617 20.7389 20.3131 21.4168 21.1301 21.4168H23.2875C23.9159 21.4168 24.2093 21.0989 24.0416 20.4847C23.8533 19.8705 23.1409 18.981 22.2191 17.922C21.7165 17.3293 20.9624 16.6725 20.7321 16.3546C20.4181 15.931 20.5018 15.7615 20.7321 15.3804C20.7111 15.3804 23.3506 11.61 23.6225 10.3377" fill="#254C6F"/>
</g>
<defs>
<clipPath id="clip0_1358_5296">
<rect width="21.0961" height="21.1628" fill="white" transform="translate(3.65137 4.88379)"/>
</clipPath>
</defs>
</svg>
