<svg width="30" height="31" viewBox="0 0 30 31" fill="none" xmlns="http://www.w3.org/2000/svg">
<ellipse cx="15" cy="15.5" rx="15" ry="15.5" fill="white"/>
<g clip-path="url(#clip0_1716_2898)">
<path d="M14.5 9.59375C15.7685 9.59375 16.7969 8.5654 16.7969 7.29687C16.7969 6.02835 15.7685 5 14.5 5C13.2315 5 12.2031 6.02835 12.2031 7.29687C12.2031 8.5654 13.2315 9.59375 14.5 9.59375Z" fill="#1B3B58"/>
<path d="M21.9238 10.2498H7.07617C6.78247 10.2498 6.50079 10.3664 6.29311 10.5741C6.08542 10.7818 5.96875 11.0635 5.96875 11.3572C5.96875 11.6509 6.08542 11.9326 6.29311 12.1403C6.50079 12.3479 6.78247 12.4646 7.07617 12.4646H11.2548C11.5383 12.4646 11.8701 12.5913 12.0579 13.0798C12.2774 13.6471 12.1699 14.7426 12.0346 15.5912L11.8574 16.5941C11.8577 16.5967 11.8574 16.5993 11.8566 16.6018C11.8557 16.6043 11.8543 16.6066 11.8524 16.6084L10.4333 24.6807C10.3818 24.9737 10.4485 25.2752 10.6188 25.5192C10.789 25.7631 11.049 25.9297 11.3418 25.9825C11.4866 26.0081 11.6349 26.0047 11.7784 25.9725C11.9218 25.9403 12.0574 25.8799 12.1773 25.7948C12.2972 25.7098 12.399 25.6018 12.4768 25.477C12.5546 25.3523 12.6068 25.2134 12.6305 25.0683L13.6112 19.4574C13.6112 19.4574 13.9258 18.1248 14.5 18.1248C15.0837 18.1248 15.3917 19.4574 15.3917 19.4574L16.3724 25.0732C16.3961 25.2196 16.4487 25.3597 16.5271 25.4856C16.6056 25.6114 16.7083 25.7203 16.8293 25.8061C16.9503 25.8918 17.0871 25.9526 17.2318 25.9849C17.3765 26.0172 17.5262 26.0204 17.6721 25.9942C17.8181 25.9681 17.9574 25.9132 18.0819 25.8327C18.2064 25.7522 18.3136 25.6477 18.3974 25.5253C18.4811 25.4029 18.5396 25.2651 18.5695 25.1199C18.5994 24.9747 18.6002 24.825 18.5716 24.6795L17.1521 16.6072C17.1524 16.6046 17.1521 16.602 17.1513 16.5995C17.1506 16.5971 17.1493 16.5948 17.1476 16.5928L16.97 15.59C16.8346 14.7414 16.7271 13.6459 16.9466 13.0786C17.1336 12.5913 17.4761 12.4634 17.7374 12.4634H21.9238C22.2175 12.4634 22.4992 12.3467 22.7069 12.139C22.9146 11.9313 23.0312 11.6497 23.0312 11.356C23.0312 11.0622 22.9146 10.7806 22.7069 10.5729C22.4992 10.3652 22.2175 10.2485 21.9238 10.2485V10.2498Z" fill="#1B3B58"/>
</g>
<defs>
<clipPath id="clip0_1716_2898">
<rect width="21" height="21" fill="white" transform="translate(4 5)"/>
</clipPath>
</defs>
</svg>
