<svg width="35" height="35" viewBox="0 0 35 35" fill="none" xmlns="http://www.w3.org/2000/svg">
<ellipse cx="18" cy="17.5" rx="15" ry="15.5" fill="#1B3B58"/>
<path fill-rule="evenodd" clip-rule="evenodd" d="M32.9972 17.5918C32.9972 9.13574 26.1624 2.2793 17.733 2.2793C9.30358 2.2793 2.46875 9.13574 2.46875 17.5918C2.46875 25.2344 8.04974 31.5692 15.3479 32.719V22.0194H11.4712V17.5918H15.3479V14.2176C15.3479 10.3806 17.6274 8.25938 21.1136 8.25938C22.7838 8.25938 24.531 8.55879 24.531 8.55879V12.3274H22.6053C20.7102 12.3274 20.1173 13.5073 20.1173 14.72V17.5925H24.3504L23.6745 22.0201H20.1173V32.7204C27.4162 31.5713 32.9972 25.2364 32.9972 17.5918Z" fill="white"/>
</svg>
