<svg width="30" height="31" viewBox="0 0 30 31" fill="none" xmlns="http://www.w3.org/2000/svg">
<ellipse cx="15" cy="15.5" rx="15" ry="15.5" fill="white"/>
<path d="M19.0103 6.97951C20.073 6.98269 21.0913 7.40626 21.8428 8.15773C22.5942 8.90919 23.0178 9.92749 23.021 10.9902V19.0108C23.0178 20.0735 22.5942 21.0918 21.8428 21.8433C21.0913 22.5947 20.073 23.0183 19.0103 23.0215H10.9897C9.927 23.0183 8.9087 22.5947 8.15724 21.8433C7.40577 21.0918 6.9822 20.0735 6.97902 19.0108V10.9902C6.9822 9.92749 7.40577 8.90919 8.15724 8.15773C8.9087 7.40626 9.927 6.98269 10.9897 6.97951H19.0103ZM19.0103 5.37549H10.9897C7.90156 5.37549 5.375 7.90205 5.375 10.9902V19.0108C5.375 22.0989 7.90156 24.6255 10.9897 24.6255H19.0103C22.0984 24.6255 24.625 22.0989 24.625 19.0108V10.9902C24.625 7.90205 22.0984 5.37549 19.0103 5.37549Z" fill="#1B3B58"/>
<path d="M20.2134 10.9893C19.9754 10.9893 19.7428 10.9187 19.545 10.7865C19.3471 10.6543 19.1929 10.4664 19.1018 10.2465C19.0108 10.0267 18.9869 9.7848 19.0334 9.55141C19.0798 9.31803 19.1944 9.10366 19.3626 8.9354C19.5309 8.76714 19.7453 8.65255 19.9787 8.60613C20.212 8.5597 20.454 8.58353 20.6738 8.67459C20.8936 8.76565 21.0815 8.91986 21.2137 9.11771C21.3459 9.31557 21.4165 9.54818 21.4165 9.78613C21.4168 9.94422 21.386 10.1008 21.3256 10.247C21.2653 10.3931 21.1767 10.5258 21.0649 10.6376C20.9531 10.7494 20.8203 10.838 20.6742 10.8984C20.5281 10.9587 20.3715 10.9896 20.2134 10.9893Z" fill="#1B3B58"/>
<path d="M15 11.792C15.6346 11.792 16.2549 11.9802 16.7825 12.3327C17.3102 12.6853 17.7214 13.1864 17.9642 13.7727C18.2071 14.3589 18.2706 15.004 18.1468 15.6264C18.023 16.2488 17.7174 16.8205 17.2687 17.2692C16.82 17.7179 16.2483 18.0235 15.6259 18.1473C15.0036 18.2711 14.3584 18.2076 13.7722 17.9647C13.1859 17.7219 12.6848 17.3107 12.3323 16.783C11.9797 16.2554 11.7915 15.6351 11.7915 15.0005C11.7924 14.1498 12.1308 13.3343 12.7323 12.7328C13.3338 12.1312 14.1493 11.7929 15 11.792ZM15 10.188C14.0482 10.188 13.1177 10.4702 12.3263 10.999C11.5349 11.5278 10.9181 12.2795 10.5538 13.1588C10.1896 14.0382 10.0943 15.0058 10.28 15.9394C10.4657 16.8729 10.924 17.7304 11.5971 18.4034C12.2701 19.0765 13.1276 19.5348 14.0611 19.7205C14.9947 19.9062 15.9623 19.8109 16.8417 19.4467C17.721 19.0824 18.4726 18.4656 19.0014 17.6742C19.5303 16.8828 19.8125 15.9523 19.8125 15.0005C19.8125 13.7241 19.3055 12.5001 18.403 11.5975C17.5004 10.695 16.2764 10.188 15 10.188Z" fill="#1B3B58"/>
</svg>
