<svg width="30" height="31" viewBox="0 0 30 31" fill="none" xmlns="http://www.w3.org/2000/svg">
<ellipse cx="15" cy="15.5" rx="15" ry="15.5" fill="white"/>
<path fill-rule="evenodd" clip-rule="evenodd" d="M23.8803 10.4136C24.0263 9.95092 23.8803 9.61459 23.2343 9.61459H21.0863C20.5445 9.61459 20.2943 9.90908 20.1483 10.2241C20.1483 10.2241 19.0433 12.9147 17.5003 14.6591C16.9999 15.1636 16.7706 15.3318 16.4995 15.3318C16.3535 15.3318 16.1656 15.1636 16.1656 14.7013V10.3918C16.1656 9.84551 15.9991 9.59326 15.5402 9.59326H12.1621C11.8282 9.59326 11.6199 9.84551 11.6199 10.0978C11.6199 10.6232 12.3914 10.7495 12.4746 12.2207V15.4175C12.4746 16.1111 12.3516 16.2378 12.0784 16.2378C11.3488 16.2378 9.57648 13.5262 8.51336 10.4365C8.30664 9.82459 8.09664 9.59326 7.55441 9.59326H5.38592C4.76043 9.59326 4.65625 9.88734 4.65625 10.2028C4.65625 10.7704 5.38592 13.6288 8.05481 17.4121C9.82709 19.9961 12.35 21.3848 14.6226 21.3848C15.9991 21.3848 16.1656 21.0694 16.1656 20.544V18.5892C16.1656 17.9588 16.2907 17.8538 16.7288 17.8538C17.0413 17.8538 17.6045 18.0216 18.8764 19.2619C20.3357 20.7331 20.5859 21.4058 21.3992 21.4058H23.5468C24.1723 21.4058 24.4643 21.0904 24.2974 20.4809C24.11 19.8714 23.4008 18.9887 22.4833 17.9379C21.9829 17.3497 21.2323 16.698 21.003 16.3826C20.6905 15.9622 20.7738 15.794 21.003 15.4158C20.9821 15.4158 23.6096 11.6744 23.8803 10.4119" fill="#254C6F"/>
</svg>
